<svg class="rich-terminal" viewBox="0 0 1238 416.0" xmlns="http://www.w3.org/2000/svg">
    <!-- Generated with Rich https://www.textualize.io -->
    <style>

    @font-face {
        font-family: "Fira Code";
        src: local("FiraCode-Regular"),
                url("https://cdnjs.cloudflare.com/ajax/libs/firacode/6.2.0/woff2/FiraCode-Regular.woff2") format("woff2"),
                url("https://cdnjs.cloudflare.com/ajax/libs/firacode/6.2.0/woff/FiraCode-Regular.woff") format("woff");
        font-style: normal;
        font-weight: 400;
    }
    @font-face {
        font-family: "Fira Code";
        src: local("FiraCode-Bold"),
                url("https://cdnjs.cloudflare.com/ajax/libs/firacode/6.2.0/woff2/FiraCode-Bold.woff2") format("woff2"),
                url("https://cdnjs.cloudflare.com/ajax/libs/firacode/6.2.0/woff/FiraCode-Bold.woff") format("woff");
        font-style: bold;
        font-weight: 700;
    }

    .terminal-2387342717-matrix {
        font-family: Fira Code, monospace;
        font-size: 20px;
        line-height: 24.4px;
        font-variant-east-asian: full-width;
    }

    .terminal-2387342717-title {
        font-size: 18px;
        font-weight: bold;
        font-family: arial;
    }

    .terminal-2387342717-r1 { fill: #00ff00 }
.terminal-2387342717-r2 { fill: #c5c8c6 }
.terminal-2387342717-r3 { fill: #007acc }
.terminal-2387342717-r4 { fill: #3c3c3c }
.terminal-2387342717-r5 { fill: #dcdcaa;font-weight: bold }
.terminal-2387342717-r6 { fill: #e3e3e3 }
.terminal-2387342717-r7 { fill: #4999ab }
.terminal-2387342717-r8 { fill: #2e2e2f }
.terminal-2387342717-r9 { fill: #569cd6;font-weight: bold }
.terminal-2387342717-r10 { fill: #569cd6 }
.terminal-2387342717-r11 { fill: #a1a1a2;font-style: italic; }
.terminal-2387342717-r12 { fill: #e2e2e2 }
.terminal-2387342717-r13 { fill: #ffa62b;font-weight: bold }
.terminal-2387342717-r14 { fill: #e0e0e0 }
.terminal-2387342717-r15 { fill: #495259 }
    </style>

    <defs>
    <clipPath id="terminal-2387342717-clip-terminal">
      <rect x="0" y="0" width="1219.0" height="365.0" />
    </clipPath>
    <clipPath id="terminal-2387342717-line-0">
    <rect x="0" y="1.5" width="1220" height="24.65"/>
            </clipPath>
<clipPath id="terminal-2387342717-line-1">
    <rect x="0" y="25.9" width="1220" height="24.65"/>
            </clipPath>
<clipPath id="terminal-2387342717-line-2">
    <rect x="0" y="50.3" width="1220" height="24.65"/>
            </clipPath>
<clipPath id="terminal-2387342717-line-3">
    <rect x="0" y="74.7" width="1220" height="24.65"/>
            </clipPath>
<clipPath id="terminal-2387342717-line-4">
    <rect x="0" y="99.1" width="1220" height="24.65"/>
            </clipPath>
<clipPath id="terminal-2387342717-line-5">
    <rect x="0" y="123.5" width="1220" height="24.65"/>
            </clipPath>
<clipPath id="terminal-2387342717-line-6">
    <rect x="0" y="147.9" width="1220" height="24.65"/>
            </clipPath>
<clipPath id="terminal-2387342717-line-7">
    <rect x="0" y="172.3" width="1220" height="24.65"/>
            </clipPath>
<clipPath id="terminal-2387342717-line-8">
    <rect x="0" y="196.7" width="1220" height="24.65"/>
            </clipPath>
<clipPath id="terminal-2387342717-line-9">
    <rect x="0" y="221.1" width="1220" height="24.65"/>
            </clipPath>
<clipPath id="terminal-2387342717-line-10">
    <rect x="0" y="245.5" width="1220" height="24.65"/>
            </clipPath>
<clipPath id="terminal-2387342717-line-11">
    <rect x="0" y="269.9" width="1220" height="24.65"/>
            </clipPath>
<clipPath id="terminal-2387342717-line-12">
    <rect x="0" y="294.3" width="1220" height="24.65"/>
            </clipPath>
<clipPath id="terminal-2387342717-line-13">
    <rect x="0" y="318.7" width="1220" height="24.65"/>
            </clipPath>
    </defs>

    <rect fill="#292929" stroke="rgba(255,255,255,0.35)" stroke-width="1" x="1" y="1" width="1236" height="414" rx="8"/><text class="terminal-2387342717-title" fill="#c5c8c6" text-anchor="middle" x="618" y="27">Bearing</text>
            <g transform="translate(26,22)">
            <circle cx="0" cy="0" r="7" fill="#ff5f57"/>
            <circle cx="22" cy="0" r="7" fill="#febc2e"/>
            <circle cx="44" cy="0" r="7" fill="#28c840"/>
            </g>
        
    <g transform="translate(9, 41)" clip-path="url(#terminal-2387342717-clip-terminal)">
    <rect fill="#2d2d2d" x="0" y="1.5" width="1220" height="24.65" shape-rendering="crispEdges"/><rect fill="#1e1e1e" x="0" y="25.9" width="12.2" height="24.65" shape-rendering="crispEdges"/><rect fill="#252526" x="12.2" y="25.9" width="12.2" height="24.65" shape-rendering="crispEdges"/><rect fill="#252526" x="24.4" y="25.9" width="317.2" height="24.65" shape-rendering="crispEdges"/><rect fill="#252526" x="341.6" y="25.9" width="12.2" height="24.65" shape-rendering="crispEdges"/><rect fill="#1e1e1e" x="353.8" y="25.9" width="12.2" height="24.65" shape-rendering="crispEdges"/><rect fill="#252526" x="366" y="25.9" width="12.2" height="24.65" shape-rendering="crispEdges"/><rect fill="#252526" x="378.2" y="25.9" width="793" height="24.65" shape-rendering="crispEdges"/><rect fill="#252526" x="1171.2" y="25.9" width="12.2" height="24.65" shape-rendering="crispEdges"/><rect fill="#1e1e1e" x="1183.4" y="25.9" width="12.2" height="24.65" shape-rendering="crispEdges"/><rect fill="#1e1e1e" x="1195.6" y="25.9" width="24.4" height="24.65" shape-rendering="crispEdges"/><rect fill="#1e1e1e" x="0" y="50.3" width="12.2" height="24.65" shape-rendering="crispEdges"/><rect fill="#252526" x="12.2" y="50.3" width="12.2" height="24.65" shape-rendering="crispEdges"/><rect fill="#2d2d2d" x="24.4" y="50.3" width="12.2" height="24.65" shape-rendering="crispEdges"/><rect fill="#2d2d2d" x="36.6" y="50.3" width="146.4" height="24.65" shape-rendering="crispEdges"/><rect fill="#2d2d2d" x="183" y="50.3" width="12.2" height="24.65" shape-rendering="crispEdges"/><rect fill="#252526" x="195.2" y="50.3" width="146.4" height="24.65" shape-rendering="crispEdges"/><rect fill="#252526" x="341.6" y="50.3" width="12.2" height="24.65" shape-rendering="crispEdges"/><rect fill="#1e1e1e" x="353.8" y="50.3" width="12.2" height="24.65" shape-rendering="crispEdges"/><rect fill="#252526" x="366" y="50.3" width="12.2" height="24.65" shape-rendering="crispEdges"/><rect fill="#2d2d2d" x="378.2" y="50.3" width="12.2" height="24.65" shape-rendering="crispEdges"/><rect fill="#2d2d2d" x="390.4" y="50.3" width="158.6" height="24.65" shape-rendering="crispEdges"/><rect fill="#2d2d2d" x="549" y="50.3" width="12.2" height="24.65" shape-rendering="crispEdges"/><rect fill="#252526" x="561.2" y="50.3" width="610" height="24.65" shape-rendering="crispEdges"/><rect fill="#252526" x="1171.2" y="50.3" width="12.2" height="24.65" shape-rendering="crispEdges"/><rect fill="#1e1e1e" x="1183.4" y="50.3" width="12.2" height="24.65" shape-rendering="crispEdges"/><rect fill="#1e1e1e" x="1195.6" y="50.3" width="24.4" height="24.65" shape-rendering="crispEdges"/><rect fill="#1e1e1e" x="0" y="74.7" width="12.2" height="24.65" shape-rendering="crispEdges"/><rect fill="#252526" x="12.2" y="74.7" width="12.2" height="24.65" shape-rendering="crispEdges"/><rect fill="#2e2e2f" x="24.4" y="74.7" width="12.2" height="24.65" shape-rendering="crispEdges"/><rect fill="#2e2e2f" x="36.6" y="74.7" width="122" height="24.65" shape-rendering="crispEdges"/><rect fill="#2e2e2f" x="158.6" y="74.7" width="48.8" height="24.65" shape-rendering="crispEdges"/><rect fill="#2e2e2f" x="207.4" y="74.7" width="97.6" height="24.65" shape-rendering="crispEdges"/><rect fill="#2e2e2f" x="305" y="74.7" width="12.2" height="24.65" shape-rendering="crispEdges"/><rect fill="#3c3c3c" x="317.2" y="74.7" width="24.4" height="24.65" shape-rendering="crispEdges"/><rect fill="#252526" x="341.6" y="74.7" width="12.2" height="24.65" shape-rendering="crispEdges"/><rect fill="#1e1e1e" x="353.8" y="74.7" width="12.2" height="24.65" shape-rendering="crispEdges"/><rect fill="#252526" x="366" y="74.7" width="12.2" height="24.65" shape-rendering="crispEdges"/><rect fill="#2d2d2d" x="378.2" y="74.7" width="48.8" height="24.65" shape-rendering="crispEdges"/><rect fill="#2d2d2d" x="427" y="74.7" width="219.6" height="24.65" shape-rendering="crispEdges"/><rect fill="#2d2d2d" x="646.6" y="74.7" width="73.2" height="24.65" shape-rendering="crispEdges"/><rect fill="#2d2d2d" x="719.8" y="74.7" width="85.4" height="24.65" shape-rendering="crispEdges"/><rect fill="#2d2d2d" x="805.2" y="74.7" width="85.4" height="24.65" shape-rendering="crispEdges"/><rect fill="#2d2d2d" x="890.6" y="74.7" width="73.2" height="24.65" shape-rendering="crispEdges"/><rect fill="#2b2b2b" x="963.8" y="74.7" width="207.4" height="24.65" shape-rendering="crispEdges"/><rect fill="#252526" x="1171.2" y="74.7" width="12.2" height="24.65" shape-rendering="crispEdges"/><rect fill="#1e1e1e" x="1183.4" y="74.7" width="12.2" height="24.65" shape-rendering="crispEdges"/><rect fill="#1e1e1e" x="1195.6" y="74.7" width="24.4" height="24.65" shape-rendering="crispEdges"/><rect fill="#1e1e1e" x="0" y="99.1" width="12.2" height="24.65" shape-rendering="crispEdges"/><rect fill="#252526" x="12.2" y="99.1" width="12.2" height="24.65" shape-rendering="crispEdges"/><rect fill="#252526" x="24.4" y="99.1" width="317.2" height="24.65" shape-rendering="crispEdges"/><rect fill="#252526" x="341.6" y="99.1" width="12.2" height="24.65" shape-rendering="crispEdges"/><rect fill="#1e1e1e" x="353.8" y="99.1" width="12.2" height="24.65" shape-rendering="crispEdges"/><rect fill="#252526" x="366" y="99.1" width="12.2" height="24.65" shape-rendering="crispEdges"/><rect fill="#252526" x="378.2" y="99.1" width="793" height="24.65" shape-rendering="crispEdges"/><rect fill="#252526" x="1171.2" y="99.1" width="12.2" height="24.65" shape-rendering="crispEdges"/><rect fill="#1e1e1e" x="1183.4" y="99.1" width="12.2" height="24.65" shape-rendering="crispEdges"/><rect fill="#1e1e1e" x="1195.6" y="99.1" width="24.4" height="24.65" shape-rendering="crispEdges"/><rect fill="#1e1e1e" x="0" y="123.5" width="1220" height="24.65" shape-rendering="crispEdges"/><rect fill="#1e1e1e" x="0" y="147.9" width="12.2" height="24.65" shape-rendering="crispEdges"/><rect fill="#2d2d2d" x="12.2" y="147.9" width="12.2" height="24.65" shape-rendering="crispEdges"/><rect fill="#2d2d2d" x="24.4" y="147.9" width="158.6" height="24.65" shape-rendering="crispEdges"/><rect fill="#2d2d2d" x="183" y="147.9" width="12.2" height="24.65" shape-rendering="crispEdges"/><rect fill="#1e1e1e" x="195.2" y="147.9" width="1024.8" height="24.65" shape-rendering="crispEdges"/><rect fill="#1e1e1e" x="0" y="172.3" width="12.2" height="24.65" shape-rendering="crispEdges"/><rect fill="#252526" x="12.2" y="172.3" width="12.2" height="24.65" shape-rendering="crispEdges"/><rect fill="#252526" x="24.4" y="172.3" width="1171.2" height="24.65" shape-rendering="crispEdges"/><rect fill="#252526" x="1195.6" y="172.3" width="12.2" height="24.65" shape-rendering="crispEdges"/><rect fill="#1e1e1e" x="1207.8" y="172.3" width="12.2" height="24.65" shape-rendering="crispEdges"/><rect fill="#1e1e1e" x="0" y="196.7" width="12.2" height="24.65" shape-rendering="crispEdges"/><rect fill="#252526" x="12.2" y="196.7" width="12.2" height="24.65" shape-rendering="crispEdges"/><rect fill="#252526" x="24.4" y="196.7" width="12.2" height="24.65" shape-rendering="crispEdges"/><rect fill="#252526" x="36.6" y="196.7" width="402.6" height="24.65" shape-rendering="crispEdges"/><rect fill="#252526" x="439.2" y="196.7" width="744.2" height="24.65" shape-rendering="crispEdges"/><rect fill="#252526" x="1183.4" y="196.7" width="12.2" height="24.65" shape-rendering="crispEdges"/><rect fill="#252526" x="1195.6" y="196.7" width="12.2" height="24.65" shape-rendering="crispEdges"/><rect fill="#1e1e1e" x="1207.8" y="196.7" width="12.2" height="24.65" shape-rendering="crispEdges"/><rect fill="#1e1e1e" x="0" y="221.1" width="12.2" height="24.65" shape-rendering="crispEdges"/><rect fill="#252526" x="12.2" y="221.1" width="12.2" height="24.65" shape-rendering="crispEdges"/><rect fill="#252526" x="24.4" y="221.1" width="12.2" height="24.65" shape-rendering="crispEdges"/><rect fill="#252526" x="36.6" y="221.1" width="1146.8" height="24.65" shape-rendering="crispEdges"/><rect fill="#252526" x="1183.4" y="221.1" width="12.2" height="24.65" shape-rendering="crispEdges"/><rect fill="#252526" x="1195.6" y="221.1" width="12.2" height="24.65" shape-rendering="crispEdges"/><rect fill="#1e1e1e" x="1207.8" y="221.1" width="12.2" height="24.65" shape-rendering="crispEdges"/><rect fill="#1e1e1e" x="0" y="245.5" width="12.2" height="24.65" shape-rendering="crispEdges"/><rect fill="#252526" x="12.2" y="245.5" width="12.2" height="24.65" shape-rendering="crispEdges"/><rect fill="#252526" x="24.4" y="245.5" width="12.2" height="24.65" shape-rendering="crispEdges"/><rect fill="#252526" x="36.6" y="245.5" width="1146.8" height="24.65" shape-rendering="crispEdges"/><rect fill="#252526" x="1183.4" y="245.5" width="12.2" height="24.65" shape-rendering="crispEdges"/><rect fill="#252526" x="1195.6" y="245.5" width="12.2" height="24.65" shape-rendering="crispEdges"/><rect fill="#1e1e1e" x="1207.8" y="245.5" width="12.2" height="24.65" shape-rendering="crispEdges"/><rect fill="#1e1e1e" x="0" y="269.9" width="12.2" height="24.65" shape-rendering="crispEdges"/><rect fill="#252526" x="12.2" y="269.9" width="12.2" height="24.65" shape-rendering="crispEdges"/><rect fill="#252526" x="24.4" y="269.9" width="12.2" height="24.65" shape-rendering="crispEdges"/><rect fill="#252526" x="36.6" y="269.9" width="1146.8" height="24.65" shape-rendering="crispEdges"/><rect fill="#252526" x="1183.4" y="269.9" width="12.2" height="24.65" shape-rendering="crispEdges"/><rect fill="#252526" x="1195.6" y="269.9" width="12.2" height="24.65" shape-rendering="crispEdges"/><rect fill="#1e1e1e" x="1207.8" y="269.9" width="12.2" height="24.65" shape-rendering="crispEdges"/><rect fill="#1e1e1e" x="0" y="294.3" width="12.2" height="24.65" shape-rendering="crispEdges"/><rect fill="#252526" x="12.2" y="294.3" width="12.2" height="24.65" shape-rendering="crispEdges"/><rect fill="#252526" x="24.4" y="294.3" width="12.2" height="24.65" shape-rendering="crispEdges"/><rect fill="#252526" x="36.6" y="294.3" width="1146.8" height="24.65" shape-rendering="crispEdges"/><rect fill="#252526" x="1183.4" y="294.3" width="12.2" height="24.65" shape-rendering="crispEdges"/><rect fill="#252526" x="1195.6" y="294.3" width="12.2" height="24.65" shape-rendering="crispEdges"/><rect fill="#1e1e1e" x="1207.8" y="294.3" width="12.2" height="24.65" shape-rendering="crispEdges"/><rect fill="#1e1e1e" x="0" y="318.7" width="12.2" height="24.65" shape-rendering="crispEdges"/><rect fill="#252526" x="12.2" y="318.7" width="12.2" height="24.65" shape-rendering="crispEdges"/><rect fill="#252526" x="24.4" y="318.7" width="1171.2" height="24.65" shape-rendering="crispEdges"/><rect fill="#252526" x="1195.6" y="318.7" width="12.2" height="24.65" shape-rendering="crispEdges"/><rect fill="#1e1e1e" x="1207.8" y="318.7" width="12.2" height="24.65" shape-rendering="crispEdges"/><rect fill="#242f38" x="0" y="343.1" width="36.6" height="24.65" shape-rendering="crispEdges"/><rect fill="#242f38" x="36.6" y="343.1" width="61" height="24.65" shape-rendering="crispEdges"/><rect fill="#242f38" x="97.6" y="343.1" width="36.6" height="24.65" shape-rendering="crispEdges"/><rect fill="#242f38" x="134.2" y="343.1" width="61" height="24.65" shape-rendering="crispEdges"/><rect fill="#242f38" x="195.2" y="343.1" width="36.6" height="24.65" shape-rendering="crispEdges"/><rect fill="#242f38" x="231.8" y="343.1" width="48.8" height="24.65" shape-rendering="crispEdges"/><rect fill="#242f38" x="280.6" y="343.1" width="36.6" height="24.65" shape-rendering="crispEdges"/><rect fill="#242f38" x="317.2" y="343.1" width="97.6" height="24.65" shape-rendering="crispEdges"/><rect fill="#242f38" x="414.8" y="343.1" width="36.6" height="24.65" shape-rendering="crispEdges"/><rect fill="#242f38" x="451.4" y="343.1" width="97.6" height="24.65" shape-rendering="crispEdges"/><rect fill="#242f38" x="549" y="343.1" width="36.6" height="24.65" shape-rendering="crispEdges"/><rect fill="#242f38" x="585.6" y="343.1" width="73.2" height="24.65" shape-rendering="crispEdges"/><rect fill="#242f38" x="658.8" y="343.1" width="414.8" height="24.65" shape-rendering="crispEdges"/><rect fill="#242f38" x="1073.6" y="343.1" width="12.2" height="24.65" shape-rendering="crispEdges"/><rect fill="#242f38" x="1085.8" y="343.1" width="24.4" height="24.65" shape-rendering="crispEdges"/><rect fill="#242f38" x="1110.2" y="343.1" width="97.6" height="24.65" shape-rendering="crispEdges"/><rect fill="#242f38" x="1207.8" y="343.1" width="12.2" height="24.65" shape-rendering="crispEdges"/>
    <g class="terminal-2387342717-matrix">
    <text class="terminal-2387342717-r2" x="1220" y="20" textLength="12.2" clip-path="url(#terminal-2387342717-line-0)">
</text><text class="terminal-2387342717-r3" x="12.2" y="44.4" textLength="12.2" clip-path="url(#terminal-2387342717-line-1)">╭</text><text class="terminal-2387342717-r3" x="24.4" y="44.4" textLength="317.2" clip-path="url(#terminal-2387342717-line-1)">──────────────────────────</text><text class="terminal-2387342717-r3" x="341.6" y="44.4" textLength="12.2" clip-path="url(#terminal-2387342717-line-1)">╮</text><text class="terminal-2387342717-r4" x="366" y="44.4" textLength="12.2" clip-path="url(#terminal-2387342717-line-1)">╭</text><text class="terminal-2387342717-r4" x="378.2" y="44.4" textLength="793" clip-path="url(#terminal-2387342717-line-1)">─────────────────────────────────────────────────────────────────</text><text class="terminal-2387342717-r4" x="1171.2" y="44.4" textLength="12.2" clip-path="url(#terminal-2387342717-line-1)">╮</text><text class="terminal-2387342717-r2" x="1220" y="44.4" textLength="12.2" clip-path="url(#terminal-2387342717-line-1)">
</text><text class="terminal-2387342717-r3" x="12.2" y="68.8" textLength="12.2" clip-path="url(#terminal-2387342717-line-2)">│</text><text class="terminal-2387342717-r5" x="36.6" y="68.8" textLength="146.4" clip-path="url(#terminal-2387342717-line-2)">[0]&#160;Projects</text><text class="terminal-2387342717-r3" x="341.6" y="68.8" textLength="12.2" clip-path="url(#terminal-2387342717-line-2)">│</text><text class="terminal-2387342717-r4" x="366" y="68.8" textLength="12.2" clip-path="url(#terminal-2387342717-line-2)">│</text><text class="terminal-2387342717-r5" x="390.4" y="68.8" textLength="158.6" clip-path="url(#terminal-2387342717-line-2)">[1]&#160;Worktrees</text><text class="terminal-2387342717-r4" x="1171.2" y="68.8" textLength="12.2" clip-path="url(#terminal-2387342717-line-2)">│</text><text class="terminal-2387342717-r2" x="1220" y="68.8" textLength="12.2" clip-path="url(#terminal-2387342717-line-2)">
</text><text class="terminal-2387342717-r3" x="12.2" y="93.2" textLength="12.2" clip-path="url(#terminal-2387342717-line-3)">│</text><text class="terminal-2387342717-r6" x="36.6" y="93.2" textLength="122" clip-path="url(#terminal-2387342717-line-3)">api-server</text><text class="terminal-2387342717-r7" x="158.6" y="93.2" textLength="48.8" clip-path="url(#terminal-2387342717-line-3)">&#160;(2)</text><text class="terminal-2387342717-r3" x="341.6" y="93.2" textLength="12.2" clip-path="url(#terminal-2387342717-line-3)">│</text><text class="terminal-2387342717-r4" x="366" y="93.2" textLength="12.2" clip-path="url(#terminal-2387342717-line-3)">│</text><text class="terminal-2387342717-r9" x="378.2" y="93.2" textLength="48.8" clip-path="url(#terminal-2387342717-line-3)">&#160;PR&#160;</text><text class="terminal-2387342717-r9" x="427" y="93.2" textLength="219.6" clip-path="url(#terminal-2387342717-line-3)">&#160;Branch&#160;&#160;&#160;&#160;&#160;&#160;&#160;&#160;&#160;&#160;&#160;</text><text class="terminal-2387342717-r9" x="646.6" y="93.2" textLength="73.2" clip-path="url(#terminal-2387342717-line-3)">&#160;Plan&#160;</text><text class="terminal-2387342717-r9" x="719.8" y="93.2" textLength="85.4" clip-path="url(#terminal-2387342717-line-3)">&#160;Issue&#160;</text><text class="terminal-2387342717-r9" x="805.2" y="93.2" textLength="85.4" clip-path="url(#terminal-2387342717-line-3)">&#160;Dirty&#160;</text><text class="terminal-2387342717-r9" x="890.6" y="93.2" textLength="73.2" clip-path="url(#terminal-2387342717-line-3)">&#160;Base&#160;</text><text class="terminal-2387342717-r4" x="1171.2" y="93.2" textLength="12.2" clip-path="url(#terminal-2387342717-line-3)">│</text><text class="terminal-2387342717-r2" x="1220" y="93.2" textLength="12.2" clip-path="url(#terminal-2387342717-line-3)">
</text><text class="terminal-2387342717-r3" x="12.2" y="117.6" textLength="12.2" clip-path="url(#terminal-2387342717-line-4)">╰</text><text class="terminal-2387342717-r3" x="24.4" y="117.6" textLength="317.2" clip-path="url(#terminal-2387342717-line-4)">──────────────────────────</text><text class="terminal-2387342717-r3" x="341.6" y="117.6" textLength="12.2" clip-path="url(#terminal-2387342717-line-4)">╯</text><text class="terminal-2387342717-r4" x="366" y="117.6" textLength="12.2" clip-path="url(#terminal-2387342717-line-4)">╰</text><text class="terminal-2387342717-r4" x="378.2" y="117.6" textLength="793" clip-path="url(#terminal-2387342717-line-4)">─────────────────────────────────────────────────────────────────</text><text class="terminal-2387342717-r4" x="1171.2" y="117.6" textLength="12.2" clip-path="url(#terminal-2387342717-line-4)">╯</text><text class="terminal-2387342717-r2" x="1220" y="117.6" textLength="12.2" clip-path="url(#terminal-2387342717-line-4)">
</text><text class="terminal-2387342717-r2" x="1220" y="142" textLength="12.2" clip-path="url(#terminal-2387342717-line-5)">
</text><text class="terminal-2387342717-r4" x="12.2" y="166.4" textLength="12.2" clip-path="url(#terminal-2387342717-line-6)">╭</text><text class="terminal-2387342717-r4" x="24.4" y="166.4" textLength="158.6" clip-path="url(#terminal-2387342717-line-6)">─────────────</text><text class="terminal-2387342717-r4" x="183" y="166.4" textLength="12.2" clip-path="url(#terminal-2387342717-line-6)">╮</text><text class="terminal-2387342717-r2" x="1220" y="166.4" textLength="12.2" clip-path="url(#terminal-2387342717-line-6)">
</text><text class="terminal-2387342717-r4" x="12.2" y="190.8" textLength="12.2" clip-path="url(#terminal-2387342717-line-7)">╭</text><text class="terminal-2387342717-r4" x="24.4" y="190.8" textLength="1171.2" clip-path="url(#terminal-2387342717-line-7)">────────────────────────────────────────────────────────────────────────────────────────────────</text><text class="terminal-2387342717-r4" x="1195.6" y="190.8" textLength="12.2" clip-path="url(#terminal-2387342717-line-7)">╮</text><text class="terminal-2387342717-r2" x="1220" y="190.8" textLength="12.2" clip-path="url(#terminal-2387342717-line-7)">
</text><text class="terminal-2387342717-r4" x="12.2" y="215.2" textLength="12.2" clip-path="url(#terminal-2387342717-line-8)">│</text><text class="terminal-2387342717-r11" x="36.6" y="215.2" textLength="402.6" clip-path="url(#terminal-2387342717-line-8)">Select&#160;a&#160;worktree&#160;to&#160;view&#160;details</text><text class="terminal-2387342717-r4" x="1195.6" y="215.2" textLength="12.2" clip-path="url(#terminal-2387342717-line-8)">│</text><text class="terminal-2387342717-r2" x="1220" y="215.2" textLength="12.2" clip-path="url(#terminal-2387342717-line-8)">
</text><text class="terminal-2387342717-r4" x="12.2" y="239.6" textLength="12.2" clip-path="url(#terminal-2387342717-line-9)">│</text><text class="terminal-2387342717-r4" x="1195.6" y="239.6" textLength="12.2" clip-path="url(#terminal-2387342717-line-9)">│</text><text class="terminal-2387342717-r2" x="1220" y="239.6" textLength="12.2" clip-path="url(#terminal-2387342717-line-9)">
</text><text class="terminal-2387342717-r4" x="12.2" y="264" textLength="12.2" clip-path="url(#terminal-2387342717-line-10)">│</text><text class="terminal-2387342717-r4" x="1195.6" y="264" textLength="12.2" clip-path="url(#terminal-2387342717-line-10)">│</text><text class="terminal-2387342717-r2" x="1220" y="264" textLength="12.2" clip-path="url(#terminal-2387342717-line-10)">
</text><text class="terminal-2387342717-r4" x="12.2" y="288.4" textLength="12.2" clip-path="url(#terminal-2387342717-line-11)">│</text><text class="terminal-2387342717-r4" x="1195.6" y="288.4" textLength="12.2" clip-path="url(#terminal-2387342717-line-11)">│</text><text class="terminal-2387342717-r2" x="1220" y="288.4" textLength="12.2" clip-path="url(#terminal-2387342717-line-11)">
</text><text class="terminal-2387342717-r4" x="12.2" y="312.8" textLength="12.2" clip-path="url(#terminal-2387342717-line-12)">│</text><text class="terminal-2387342717-r4" x="1195.6" y="312.8" textLength="12.2" clip-path="url(#terminal-2387342717-line-12)">│</text><text class="terminal-2387342717-r2" x="1220" y="312.8" textLength="12.2" clip-path="url(#terminal-2387342717-line-12)">
</text><text class="terminal-2387342717-r4" x="12.2" y="337.2" textLength="12.2" clip-path="url(#terminal-2387342717-line-13)">╰</text><text class="terminal-2387342717-r4" x="24.4" y="337.2" textLength="1171.2" clip-path="url(#terminal-2387342717-line-13)">────────────────────────────────────────────────────────────────────────────────────────────────</text><text class="terminal-2387342717-r4" x="1195.6" y="337.2" textLength="12.2" clip-path="url(#terminal-2387342717-line-13)">╯</text><text class="terminal-2387342717-r2" x="1220" y="337.2" textLength="12.2" clip-path="url(#terminal-2387342717-line-13)">
</text><text class="terminal-2387342717-r13" x="0" y="361.6" textLength="36.6" clip-path="url(#terminal-2387342717-line-14)">&#160;q&#160;</text><text class="terminal-2387342717-r14" x="36.6" y="361.6" textLength="61" clip-path="url(#terminal-2387342717-line-14)">Quit&#160;</text><text class="terminal-2387342717-r13" x="97.6" y="361.6" textLength="36.6" clip-path="url(#terminal-2387342717-line-14)">&#160;?&#160;</text><text class="terminal-2387342717-r14" x="134.2" y="361.6" textLength="61" clip-path="url(#terminal-2387342717-line-14)">Help&#160;</text><text class="terminal-2387342717-r13" x="195.2" y="361.6" textLength="36.6" clip-path="url(#terminal-2387342717-line-14)">&#160;n&#160;</text><text class="terminal-2387342717-r14" x="231.8" y="361.6" textLength="48.8" clip-path="url(#terminal-2387342717-line-14)">New&#160;</text><text class="terminal-2387342717-r13" x="280.6" y="361.6" textLength="36.6" clip-path="url(#terminal-2387342717-line-14)">&#160;c&#160;</text><text class="terminal-2387342717-r14" x="317.2" y="361.6" textLength="97.6" clip-path="url(#terminal-2387342717-line-14)">Cleanup&#160;</text><text class="terminal-2387342717-r13" x="414.8" y="361.6" textLength="36.6" clip-path="url(#terminal-2387342717-line-14)">&#160;r&#160;</text><text class="terminal-2387342717-r14" x="451.4" y="361.6" textLength="97.6" clip-path="url(#terminal-2387342717-line-14)">Refresh&#160;</text><text class="terminal-2387342717-r13" x="549" y="361.6" textLength="36.6" clip-path="url(#terminal-2387342717-line-14)">&#160;p&#160;</text><text class="terminal-2387342717-r14" x="585.6" y="361.6" textLength="73.2" clip-path="url(#terminal-2387342717-line-14)">Plans&#160;</text><text class="terminal-2387342717-r15" x="1073.6" y="361.6" textLength="12.2" clip-path="url(#terminal-2387342717-line-14)">▏</text><text class="terminal-2387342717-r13" x="1085.8" y="361.6" textLength="24.4" clip-path="url(#terminal-2387342717-line-14)">^p</text><text class="terminal-2387342717-r14" x="1110.2" y="361.6" textLength="97.6" clip-path="url(#terminal-2387342717-line-14)">&#160;palette</text>
    </g>
    </g>
</svg>
