<svg class="rich-terminal" viewBox="0 0 750 660.0" xmlns="http://www.w3.org/2000/svg">
    <!-- Generated with Rich https://www.textualize.io -->
    <style>

    @font-face {
        font-family: "Fira Code";
        src: local("FiraCode-Regular"),
                url("https://cdnjs.cloudflare.com/ajax/libs/firacode/6.2.0/woff2/FiraCode-Regular.woff2") format("woff2"),
                url("https://cdnjs.cloudflare.com/ajax/libs/firacode/6.2.0/woff/FiraCode-Regular.woff") format("woff");
        font-style: normal;
        font-weight: 400;
    }
    @font-face {
        font-family: "Fira Code";
        src: local("FiraCode-Bold"),
                url("https://cdnjs.cloudflare.com/ajax/libs/firacode/6.2.0/woff2/FiraCode-Bold.woff2") format("woff2"),
                url("https://cdnjs.cloudflare.com/ajax/libs/firacode/6.2.0/woff/FiraCode-Bold.woff") format("woff");
        font-style: bold;
        font-weight: 700;
    }

    .terminal-2848660129-matrix {
        font-family: Fira Code, monospace;
        font-size: 20px;
        line-height: 24.4px;
        font-variant-east-asian: full-width;
    }

    .terminal-2848660129-title {
        font-size: 18px;
        font-weight: bold;
        font-family: arial;
    }

    .terminal-2848660129-r1 { fill: #00ff00 }
.terminal-2848660129-r2 { fill: #c5c8c6 }
.terminal-2848660129-r3 { fill: #007acc }
.terminal-2848660129-r4 { fill: #3c3c3c }
.terminal-2848660129-r5 { fill: #dcdcaa;font-weight: bold }
.terminal-2848660129-r6 { fill: #e3e3e3 }
.terminal-2848660129-r7 { fill: #4999ab }
.terminal-2848660129-r8 { fill: #569cd6;font-weight: bold }
.terminal-2848660129-r9 { fill: #e1e5ea }
.terminal-2848660129-r10 { fill: #252526 }
.terminal-2848660129-r11 { fill: #e0e0e0 }
.terminal-2848660129-r12 { fill: #a1a1a2;font-style: italic; }
.terminal-2848660129-r13 { fill: #e2e2e2 }
    </style>

    <defs>
    <clipPath id="terminal-2848660129-clip-terminal">
      <rect x="0" y="0" width="731.0" height="609.0" />
    </clipPath>
    <clipPath id="terminal-2848660129-line-0">
    <rect x="0" y="1.5" width="732" height="24.65"/>
            </clipPath>
<clipPath id="terminal-2848660129-line-1">
    <rect x="0" y="25.9" width="732" height="24.65"/>
            </clipPath>
<clipPath id="terminal-2848660129-line-2">
    <rect x="0" y="50.3" width="732" height="24.65"/>
            </clipPath>
<clipPath id="terminal-2848660129-line-3">
    <rect x="0" y="74.7" width="732" height="24.65"/>
            </clipPath>
<clipPath id="terminal-2848660129-line-4">
    <rect x="0" y="99.1" width="732" height="24.65"/>
            </clipPath>
<clipPath id="terminal-2848660129-line-5">
    <rect x="0" y="123.5" width="732" height="24.65"/>
            </clipPath>
<clipPath id="terminal-2848660129-line-6">
    <rect x="0" y="147.9" width="732" height="24.65"/>
            </clipPath>
<clipPath id="terminal-2848660129-line-7">
    <rect x="0" y="172.3" width="732" height="24.65"/>
            </clipPath>
<clipPath id="terminal-2848660129-line-8">
    <rect x="0" y="196.7" width="732" height="24.65"/>
            </clipPath>
<clipPath id="terminal-2848660129-line-9">
    <rect x="0" y="221.1" width="732" height="24.65"/>
            </clipPath>
<clipPath id="terminal-2848660129-line-10">
    <rect x="0" y="245.5" width="732" height="24.65"/>
            </clipPath>
<clipPath id="terminal-2848660129-line-11">
    <rect x="0" y="269.9" width="732" height="24.65"/>
            </clipPath>
<clipPath id="terminal-2848660129-line-12">
    <rect x="0" y="294.3" width="732" height="24.65"/>
            </clipPath>
<clipPath id="terminal-2848660129-line-13">
    <rect x="0" y="318.7" width="732" height="24.65"/>
            </clipPath>
<clipPath id="terminal-2848660129-line-14">
    <rect x="0" y="343.1" width="732" height="24.65"/>
            </clipPath>
<clipPath id="terminal-2848660129-line-15">
    <rect x="0" y="367.5" width="732" height="24.65"/>
            </clipPath>
<clipPath id="terminal-2848660129-line-16">
    <rect x="0" y="391.9" width="732" height="24.65"/>
            </clipPath>
<clipPath id="terminal-2848660129-line-17">
    <rect x="0" y="416.3" width="732" height="24.65"/>
            </clipPath>
<clipPath id="terminal-2848660129-line-18">
    <rect x="0" y="440.7" width="732" height="24.65"/>
            </clipPath>
<clipPath id="terminal-2848660129-line-19">
    <rect x="0" y="465.1" width="732" height="24.65"/>
            </clipPath>
<clipPath id="terminal-2848660129-line-20">
    <rect x="0" y="489.5" width="732" height="24.65"/>
            </clipPath>
<clipPath id="terminal-2848660129-line-21">
    <rect x="0" y="513.9" width="732" height="24.65"/>
            </clipPath>
<clipPath id="terminal-2848660129-line-22">
    <rect x="0" y="538.3" width="732" height="24.65"/>
            </clipPath>
<clipPath id="terminal-2848660129-line-23">
    <rect x="0" y="562.7" width="732" height="24.65"/>
            </clipPath>
    </defs>

    <rect fill="#292929" stroke="rgba(255,255,255,0.35)" stroke-width="1" x="1" y="1" width="748" height="658" rx="8"/><text class="terminal-2848660129-title" fill="#c5c8c6" text-anchor="middle" x="374" y="27">Bearing</text>
            <g transform="translate(26,22)">
            <circle cx="0" cy="0" r="7" fill="#ff5f57"/>
            <circle cx="22" cy="0" r="7" fill="#febc2e"/>
            <circle cx="44" cy="0" r="7" fill="#28c840"/>
            </g>
        
    <g transform="translate(9, 41)" clip-path="url(#terminal-2848660129-clip-terminal)">
    <rect fill="#2d2d2d" x="0" y="1.5" width="732" height="24.65" shape-rendering="crispEdges"/><rect fill="#1e1e1e" x="0" y="25.9" width="12.2" height="24.65" shape-rendering="crispEdges"/><rect fill="#252526" x="12.2" y="25.9" width="12.2" height="24.65" shape-rendering="crispEdges"/><rect fill="#252526" x="24.4" y="25.9" width="317.2" height="24.65" shape-rendering="crispEdges"/><rect fill="#252526" x="341.6" y="25.9" width="12.2" height="24.65" shape-rendering="crispEdges"/><rect fill="#1e1e1e" x="353.8" y="25.9" width="12.2" height="24.65" shape-rendering="crispEdges"/><rect fill="#252526" x="366" y="25.9" width="12.2" height="24.65" shape-rendering="crispEdges"/><rect fill="#252526" x="378.2" y="25.9" width="305" height="24.65" shape-rendering="crispEdges"/><rect fill="#252526" x="683.2" y="25.9" width="12.2" height="24.65" shape-rendering="crispEdges"/><rect fill="#1e1e1e" x="695.4" y="25.9" width="12.2" height="24.65" shape-rendering="crispEdges"/><rect fill="#1e1e1e" x="707.6" y="25.9" width="24.4" height="24.65" shape-rendering="crispEdges"/><rect fill="#1e1e1e" x="0" y="50.3" width="12.2" height="24.65" shape-rendering="crispEdges"/><rect fill="#252526" x="12.2" y="50.3" width="12.2" height="24.65" shape-rendering="crispEdges"/><rect fill="#2d2d2d" x="24.4" y="50.3" width="12.2" height="24.65" shape-rendering="crispEdges"/><rect fill="#2d2d2d" x="36.6" y="50.3" width="146.4" height="24.65" shape-rendering="crispEdges"/><rect fill="#2d2d2d" x="183" y="50.3" width="12.2" height="24.65" shape-rendering="crispEdges"/><rect fill="#252526" x="195.2" y="50.3" width="146.4" height="24.65" shape-rendering="crispEdges"/><rect fill="#252526" x="341.6" y="50.3" width="12.2" height="24.65" shape-rendering="crispEdges"/><rect fill="#1e1e1e" x="353.8" y="50.3" width="12.2" height="24.65" shape-rendering="crispEdges"/><rect fill="#252526" x="366" y="50.3" width="12.2" height="24.65" shape-rendering="crispEdges"/><rect fill="#2d2d2d" x="378.2" y="50.3" width="12.2" height="24.65" shape-rendering="crispEdges"/><rect fill="#2d2d2d" x="390.4" y="50.3" width="158.6" height="24.65" shape-rendering="crispEdges"/><rect fill="#2d2d2d" x="549" y="50.3" width="12.2" height="24.65" shape-rendering="crispEdges"/><rect fill="#252526" x="561.2" y="50.3" width="122" height="24.65" shape-rendering="crispEdges"/><rect fill="#252526" x="683.2" y="50.3" width="12.2" height="24.65" shape-rendering="crispEdges"/><rect fill="#1e1e1e" x="695.4" y="50.3" width="12.2" height="24.65" shape-rendering="crispEdges"/><rect fill="#1e1e1e" x="707.6" y="50.3" width="24.4" height="24.65" shape-rendering="crispEdges"/><rect fill="#1e1e1e" x="0" y="74.7" width="12.2" height="24.65" shape-rendering="crispEdges"/><rect fill="#252526" x="12.2" y="74.7" width="12.2" height="24.65" shape-rendering="crispEdges"/><rect fill="#2e2e2f" x="24.4" y="74.7" width="12.2" height="24.65" shape-rendering="crispEdges"/><rect fill="#2e2e2f" x="36.6" y="74.7" width="122" height="24.65" shape-rendering="crispEdges"/><rect fill="#2e2e2f" x="158.6" y="74.7" width="48.8" height="24.65" shape-rendering="crispEdges"/><rect fill="#2e2e2f" x="207.4" y="74.7" width="122" height="24.65" shape-rendering="crispEdges"/><rect fill="#2e2e2f" x="329.4" y="74.7" width="12.2" height="24.65" shape-rendering="crispEdges"/><rect fill="#252526" x="341.6" y="74.7" width="12.2" height="24.65" shape-rendering="crispEdges"/><rect fill="#1e1e1e" x="353.8" y="74.7" width="12.2" height="24.65" shape-rendering="crispEdges"/><rect fill="#252526" x="366" y="74.7" width="12.2" height="24.65" shape-rendering="crispEdges"/><rect fill="#2d2d2d" x="378.2" y="74.7" width="219.6" height="24.65" shape-rendering="crispEdges"/><rect fill="#2d2d2d" x="597.8" y="74.7" width="85.4" height="24.65" shape-rendering="crispEdges"/><rect fill="#252526" x="683.2" y="74.7" width="12.2" height="24.65" shape-rendering="crispEdges"/><rect fill="#1e1e1e" x="695.4" y="74.7" width="12.2" height="24.65" shape-rendering="crispEdges"/><rect fill="#1e1e1e" x="707.6" y="74.7" width="24.4" height="24.65" shape-rendering="crispEdges"/><rect fill="#1e1e1e" x="0" y="99.1" width="12.2" height="24.65" shape-rendering="crispEdges"/><rect fill="#252526" x="12.2" y="99.1" width="12.2" height="24.65" shape-rendering="crispEdges"/><rect fill="#2e2e2f" x="24.4" y="99.1" width="12.2" height="24.65" shape-rendering="crispEdges"/><rect fill="#2e2e2f" x="36.6" y="99.1" width="85.4" height="24.65" shape-rendering="crispEdges"/><rect fill="#2e2e2f" x="122" y="99.1" width="48.8" height="24.65" shape-rendering="crispEdges"/><rect fill="#2e2e2f" x="170.8" y="99.1" width="158.6" height="24.65" shape-rendering="crispEdges"/><rect fill="#2e2e2f" x="329.4" y="99.1" width="12.2" height="24.65" shape-rendering="crispEdges"/><rect fill="#252526" x="341.6" y="99.1" width="12.2" height="24.65" shape-rendering="crispEdges"/><rect fill="#1e1e1e" x="353.8" y="99.1" width="12.2" height="24.65" shape-rendering="crispEdges"/><rect fill="#252526" x="366" y="99.1" width="12.2" height="24.65" shape-rendering="crispEdges"/><rect fill="#1e3a5f" x="378.2" y="99.1" width="219.6" height="24.65" shape-rendering="crispEdges"/><rect fill="#1e3a5f" x="597.8" y="99.1" width="85.4" height="24.65" shape-rendering="crispEdges"/><rect fill="#252526" x="683.2" y="99.1" width="12.2" height="24.65" shape-rendering="crispEdges"/><rect fill="#1e1e1e" x="695.4" y="99.1" width="12.2" height="24.65" shape-rendering="crispEdges"/><rect fill="#1e1e1e" x="707.6" y="99.1" width="24.4" height="24.65" shape-rendering="crispEdges"/><rect fill="#1e1e1e" x="0" y="123.5" width="12.2" height="24.65" shape-rendering="crispEdges"/><rect fill="#252526" x="12.2" y="123.5" width="12.2" height="24.65" shape-rendering="crispEdges"/><rect fill="#2e2e2f" x="24.4" y="123.5" width="12.2" height="24.65" shape-rendering="crispEdges"/><rect fill="#2e2e2f" x="36.6" y="123.5" width="219.6" height="24.65" shape-rendering="crispEdges"/><rect fill="#2e2e2f" x="256.2" y="123.5" width="48.8" height="24.65" shape-rendering="crispEdges"/><rect fill="#2e2e2f" x="305" y="123.5" width="24.4" height="24.65" shape-rendering="crispEdges"/><rect fill="#2e2e2f" x="329.4" y="123.5" width="12.2" height="24.65" shape-rendering="crispEdges"/><rect fill="#252526" x="341.6" y="123.5" width="12.2" height="24.65" shape-rendering="crispEdges"/><rect fill="#1e1e1e" x="353.8" y="123.5" width="12.2" height="24.65" shape-rendering="crispEdges"/><rect fill="#252526" x="366" y="123.5" width="12.2" height="24.65" shape-rendering="crispEdges"/><rect fill="#3c3c3c" x="378.2" y="123.5" width="12.2" height="24.65" shape-rendering="crispEdges"/><rect fill="#3c3c3c" x="390.4" y="123.5" width="12.2" height="24.65" shape-rendering="crispEdges"/><rect fill="#3c3c3c" x="402.6" y="123.5" width="12.2" height="24.65" shape-rendering="crispEdges"/><rect fill="#3c3c3c" x="414.8" y="123.5" width="12.2" height="24.65" shape-rendering="crispEdges"/><rect fill="#3c3c3c" x="427" y="123.5" width="12.2" height="24.65" shape-rendering="crispEdges"/><rect fill="#3c3c3c" x="439.2" y="123.5" width="12.2" height="24.65" shape-rendering="crispEdges"/><rect fill="#3c3c3c" x="451.4" y="123.5" width="12.2" height="24.65" shape-rendering="crispEdges"/><rect fill="#3c3c3c" x="463.6" y="123.5" width="12.2" height="24.65" shape-rendering="crispEdges"/><rect fill="#3c3c3c" x="475.8" y="123.5" width="12.2" height="24.65" shape-rendering="crispEdges"/><rect fill="#3c3c3c" x="488" y="123.5" width="12.2" height="24.65" shape-rendering="crispEdges"/><rect fill="#3c3c3c" x="500.2" y="123.5" width="12.2" height="24.65" shape-rendering="crispEdges"/><rect fill="#2d2d2d" x="512.4" y="123.5" width="12.2" height="24.65" shape-rendering="crispEdges"/><rect fill="#2d2d2d" x="524.6" y="123.5" width="12.2" height="24.65" shape-rendering="crispEdges"/><rect fill="#2d2d2d" x="536.8" y="123.5" width="12.2" height="24.65" shape-rendering="crispEdges"/><rect fill="#2d2d2d" x="549" y="123.5" width="12.2" height="24.65" shape-rendering="crispEdges"/><rect fill="#2d2d2d" x="561.2" y="123.5" width="12.2" height="24.65" shape-rendering="crispEdges"/><rect fill="#2d2d2d" x="573.4" y="123.5" width="12.2" height="24.65" shape-rendering="crispEdges"/><rect fill="#2d2d2d" x="585.6" y="123.5" width="12.2" height="24.65" shape-rendering="crispEdges"/><rect fill="#2d2d2d" x="597.8" y="123.5" width="12.2" height="24.65" shape-rendering="crispEdges"/><rect fill="#2d2d2d" x="610" y="123.5" width="12.2" height="24.65" shape-rendering="crispEdges"/><rect fill="#2d2d2d" x="622.2" y="123.5" width="12.2" height="24.65" shape-rendering="crispEdges"/><rect fill="#2d2d2d" x="634.4" y="123.5" width="12.2" height="24.65" shape-rendering="crispEdges"/><rect fill="#2d2d2d" x="646.6" y="123.5" width="12.2" height="24.65" shape-rendering="crispEdges"/><rect fill="#2d2d2d" x="658.8" y="123.5" width="12.2" height="24.65" shape-rendering="crispEdges"/><rect fill="#2d2d2d" x="671" y="123.5" width="12.2" height="24.65" shape-rendering="crispEdges"/><rect fill="#252526" x="683.2" y="123.5" width="12.2" height="24.65" shape-rendering="crispEdges"/><rect fill="#1e1e1e" x="695.4" y="123.5" width="12.2" height="24.65" shape-rendering="crispEdges"/><rect fill="#1e1e1e" x="707.6" y="123.5" width="24.4" height="24.65" shape-rendering="crispEdges"/><rect fill="#1e1e1e" x="0" y="147.9" width="12.2" height="24.65" shape-rendering="crispEdges"/><rect fill="#252526" x="12.2" y="147.9" width="12.2" height="24.65" shape-rendering="crispEdges"/><rect fill="#2e2e2f" x="24.4" y="147.9" width="12.2" height="24.65" shape-rendering="crispEdges"/><rect fill="#2e2e2f" x="36.6" y="147.9" width="109.8" height="24.65" shape-rendering="crispEdges"/><rect fill="#2e2e2f" x="146.4" y="147.9" width="48.8" height="24.65" shape-rendering="crispEdges"/><rect fill="#2e2e2f" x="195.2" y="147.9" width="134.2" height="24.65" shape-rendering="crispEdges"/><rect fill="#2e2e2f" x="329.4" y="147.9" width="12.2" height="24.65" shape-rendering="crispEdges"/><rect fill="#252526" x="341.6" y="147.9" width="12.2" height="24.65" shape-rendering="crispEdges"/><rect fill="#1e1e1e" x="353.8" y="147.9" width="12.2" height="24.65" shape-rendering="crispEdges"/><rect fill="#252526" x="366" y="147.9" width="12.2" height="24.65" shape-rendering="crispEdges"/><rect fill="#252526" x="378.2" y="147.9" width="305" height="24.65" shape-rendering="crispEdges"/><rect fill="#252526" x="683.2" y="147.9" width="12.2" height="24.65" shape-rendering="crispEdges"/><rect fill="#1e1e1e" x="695.4" y="147.9" width="12.2" height="24.65" shape-rendering="crispEdges"/><rect fill="#1e1e1e" x="707.6" y="147.9" width="24.4" height="24.65" shape-rendering="crispEdges"/><rect fill="#1e1e1e" x="0" y="172.3" width="12.2" height="24.65" shape-rendering="crispEdges"/><rect fill="#252526" x="12.2" y="172.3" width="12.2" height="24.65" shape-rendering="crispEdges"/><rect fill="#2e2e2f" x="24.4" y="172.3" width="12.2" height="24.65" shape-rendering="crispEdges"/><rect fill="#2e2e2f" x="36.6" y="172.3" width="85.4" height="24.65" shape-rendering="crispEdges"/><rect fill="#2e2e2f" x="122" y="172.3" width="48.8" height="24.65" shape-rendering="crispEdges"/><rect fill="#2e2e2f" x="170.8" y="172.3" width="158.6" height="24.65" shape-rendering="crispEdges"/><rect fill="#2e2e2f" x="329.4" y="172.3" width="12.2" height="24.65" shape-rendering="crispEdges"/><rect fill="#252526" x="341.6" y="172.3" width="12.2" height="24.65" shape-rendering="crispEdges"/><rect fill="#1e1e1e" x="353.8" y="172.3" width="12.2" height="24.65" shape-rendering="crispEdges"/><rect fill="#252526" x="366" y="172.3" width="12.2" height="24.65" shape-rendering="crispEdges"/><rect fill="#252526" x="378.2" y="172.3" width="305" height="24.65" shape-rendering="crispEdges"/><rect fill="#252526" x="683.2" y="172.3" width="12.2" height="24.65" shape-rendering="crispEdges"/><rect fill="#1e1e1e" x="695.4" y="172.3" width="12.2" height="24.65" shape-rendering="crispEdges"/><rect fill="#1e1e1e" x="707.6" y="172.3" width="24.4" height="24.65" shape-rendering="crispEdges"/><rect fill="#1e1e1e" x="0" y="196.7" width="12.2" height="24.65" shape-rendering="crispEdges"/><rect fill="#252526" x="12.2" y="196.7" width="12.2" height="24.65" shape-rendering="crispEdges"/><rect fill="#2e2e2f" x="24.4" y="196.7" width="12.2" height="24.65" shape-rendering="crispEdges"/><rect fill="#2e2e2f" x="36.6" y="196.7" width="122" height="24.65" shape-rendering="crispEdges"/><rect fill="#2e2e2f" x="158.6" y="196.7" width="48.8" height="24.65" shape-rendering="crispEdges"/><rect fill="#2e2e2f" x="207.4" y="196.7" width="122" height="24.65" shape-rendering="crispEdges"/><rect fill="#2e2e2f" x="329.4" y="196.7" width="12.2" height="24.65" shape-rendering="crispEdges"/><rect fill="#252526" x="341.6" y="196.7" width="12.2" height="24.65" shape-rendering="crispEdges"/><rect fill="#1e1e1e" x="353.8" y="196.7" width="12.2" height="24.65" shape-rendering="crispEdges"/><rect fill="#252526" x="366" y="196.7" width="12.2" height="24.65" shape-rendering="crispEdges"/><rect fill="#252526" x="378.2" y="196.7" width="305" height="24.65" shape-rendering="crispEdges"/><rect fill="#252526" x="683.2" y="196.7" width="12.2" height="24.65" shape-rendering="crispEdges"/><rect fill="#1e1e1e" x="695.4" y="196.7" width="12.2" height="24.65" shape-rendering="crispEdges"/><rect fill="#1e1e1e" x="707.6" y="196.7" width="24.4" height="24.65" shape-rendering="crispEdges"/><rect fill="#1e1e1e" x="0" y="221.1" width="12.2" height="24.65" shape-rendering="crispEdges"/><rect fill="#252526" x="12.2" y="221.1" width="12.2" height="24.65" shape-rendering="crispEdges"/><rect fill="#2e2e2f" x="24.4" y="221.1" width="317.2" height="24.65" shape-rendering="crispEdges"/><rect fill="#252526" x="341.6" y="221.1" width="12.2" height="24.65" shape-rendering="crispEdges"/><rect fill="#1e1e1e" x="353.8" y="221.1" width="12.2" height="24.65" shape-rendering="crispEdges"/><rect fill="#252526" x="366" y="221.1" width="12.2" height="24.65" shape-rendering="crispEdges"/><rect fill="#252526" x="378.2" y="221.1" width="305" height="24.65" shape-rendering="crispEdges"/><rect fill="#252526" x="683.2" y="221.1" width="12.2" height="24.65" shape-rendering="crispEdges"/><rect fill="#1e1e1e" x="695.4" y="221.1" width="12.2" height="24.65" shape-rendering="crispEdges"/><rect fill="#1e1e1e" x="707.6" y="221.1" width="24.4" height="24.65" shape-rendering="crispEdges"/><rect fill="#1e1e1e" x="0" y="245.5" width="12.2" height="24.65" shape-rendering="crispEdges"/><rect fill="#252526" x="12.2" y="245.5" width="12.2" height="24.65" shape-rendering="crispEdges"/><rect fill="#2e2e2f" x="24.4" y="245.5" width="317.2" height="24.65" shape-rendering="crispEdges"/><rect fill="#252526" x="341.6" y="245.5" width="12.2" height="24.65" shape-rendering="crispEdges"/><rect fill="#1e1e1e" x="353.8" y="245.5" width="12.2" height="24.65" shape-rendering="crispEdges"/><rect fill="#252526" x="366" y="245.5" width="12.2" height="24.65" shape-rendering="crispEdges"/><rect fill="#252526" x="378.2" y="245.5" width="305" height="24.65" shape-rendering="crispEdges"/><rect fill="#252526" x="683.2" y="245.5" width="12.2" height="24.65" shape-rendering="crispEdges"/><rect fill="#1e1e1e" x="695.4" y="245.5" width="12.2" height="24.65" shape-rendering="crispEdges"/><rect fill="#1e1e1e" x="707.6" y="245.5" width="24.4" height="24.65" shape-rendering="crispEdges"/><rect fill="#1e1e1e" x="0" y="269.9" width="12.2" height="24.65" shape-rendering="crispEdges"/><rect fill="#252526" x="12.2" y="269.9" width="12.2" height="24.65" shape-rendering="crispEdges"/><rect fill="#2e2e2f" x="24.4" y="269.9" width="317.2" height="24.65" shape-rendering="crispEdges"/><rect fill="#252526" x="341.6" y="269.9" width="12.2" height="24.65" shape-rendering="crispEdges"/><rect fill="#1e1e1e" x="353.8" y="269.9" width="12.2" height="24.65" shape-rendering="crispEdges"/><rect fill="#252526" x="366" y="269.9" width="12.2" height="24.65" shape-rendering="crispEdges"/><rect fill="#252526" x="378.2" y="269.9" width="305" height="24.65" shape-rendering="crispEdges"/><rect fill="#252526" x="683.2" y="269.9" width="12.2" height="24.65" shape-rendering="crispEdges"/><rect fill="#1e1e1e" x="695.4" y="269.9" width="12.2" height="24.65" shape-rendering="crispEdges"/><rect fill="#1e1e1e" x="707.6" y="269.9" width="24.4" height="24.65" shape-rendering="crispEdges"/><rect fill="#1e1e1e" x="0" y="294.3" width="12.2" height="24.65" shape-rendering="crispEdges"/><rect fill="#252526" x="12.2" y="294.3" width="12.2" height="24.65" shape-rendering="crispEdges"/><rect fill="#2e2e2f" x="24.4" y="294.3" width="317.2" height="24.65" shape-rendering="crispEdges"/><rect fill="#252526" x="341.6" y="294.3" width="12.2" height="24.65" shape-rendering="crispEdges"/><rect fill="#1e1e1e" x="353.8" y="294.3" width="12.2" height="24.65" shape-rendering="crispEdges"/><rect fill="#252526" x="366" y="294.3" width="12.2" height="24.65" shape-rendering="crispEdges"/><rect fill="#252526" x="378.2" y="294.3" width="305" height="24.65" shape-rendering="crispEdges"/><rect fill="#252526" x="683.2" y="294.3" width="12.2" height="24.65" shape-rendering="crispEdges"/><rect fill="#1e1e1e" x="695.4" y="294.3" width="12.2" height="24.65" shape-rendering="crispEdges"/><rect fill="#1e1e1e" x="707.6" y="294.3" width="24.4" height="24.65" shape-rendering="crispEdges"/><rect fill="#1e1e1e" x="0" y="318.7" width="12.2" height="24.65" shape-rendering="crispEdges"/><rect fill="#252526" x="12.2" y="318.7" width="12.2" height="24.65" shape-rendering="crispEdges"/><rect fill="#2e2e2f" x="24.4" y="318.7" width="317.2" height="24.65" shape-rendering="crispEdges"/><rect fill="#252526" x="341.6" y="318.7" width="12.2" height="24.65" shape-rendering="crispEdges"/><rect fill="#1e1e1e" x="353.8" y="318.7" width="12.2" height="24.65" shape-rendering="crispEdges"/><rect fill="#252526" x="366" y="318.7" width="12.2" height="24.65" shape-rendering="crispEdges"/><rect fill="#252526" x="378.2" y="318.7" width="305" height="24.65" shape-rendering="crispEdges"/><rect fill="#252526" x="683.2" y="318.7" width="12.2" height="24.65" shape-rendering="crispEdges"/><rect fill="#1e1e1e" x="695.4" y="318.7" width="12.2" height="24.65" shape-rendering="crispEdges"/><rect fill="#1e1e1e" x="707.6" y="318.7" width="24.4" height="24.65" shape-rendering="crispEdges"/><rect fill="#1e1e1e" x="0" y="343.1" width="12.2" height="24.65" shape-rendering="crispEdges"/><rect fill="#252526" x="12.2" y="343.1" width="12.2" height="24.65" shape-rendering="crispEdges"/><rect fill="#252526" x="24.4" y="343.1" width="317.2" height="24.65" shape-rendering="crispEdges"/><rect fill="#252526" x="341.6" y="343.1" width="12.2" height="24.65" shape-rendering="crispEdges"/><rect fill="#1e1e1e" x="353.8" y="343.1" width="12.2" height="24.65" shape-rendering="crispEdges"/><rect fill="#252526" x="366" y="343.1" width="12.2" height="24.65" shape-rendering="crispEdges"/><rect fill="#252526" x="378.2" y="343.1" width="305" height="24.65" shape-rendering="crispEdges"/><rect fill="#252526" x="683.2" y="343.1" width="12.2" height="24.65" shape-rendering="crispEdges"/><rect fill="#1e1e1e" x="695.4" y="343.1" width="12.2" height="24.65" shape-rendering="crispEdges"/><rect fill="#1e1e1e" x="707.6" y="343.1" width="24.4" height="24.65" shape-rendering="crispEdges"/><rect fill="#1e1e1e" x="0" y="367.5" width="732" height="24.65" shape-rendering="crispEdges"/><rect fill="#1e1e1e" x="0" y="391.9" width="12.2" height="24.65" shape-rendering="crispEdges"/><rect fill="#2d2d2d" x="12.2" y="391.9" width="12.2" height="24.65" shape-rendering="crispEdges"/><rect fill="#2d2d2d" x="24.4" y="391.9" width="158.6" height="24.65" shape-rendering="crispEdges"/><rect fill="#2d2d2d" x="183" y="391.9" width="12.2" height="24.65" shape-rendering="crispEdges"/><rect fill="#1e1e1e" x="195.2" y="391.9" width="536.8" height="24.65" shape-rendering="crispEdges"/><rect fill="#1e1e1e" x="0" y="416.3" width="12.2" height="24.65" shape-rendering="crispEdges"/><rect fill="#252526" x="12.2" y="416.3" width="12.2" height="24.65" shape-rendering="crispEdges"/><rect fill="#252526" x="24.4" y="416.3" width="683.2" height="24.65" shape-rendering="crispEdges"/><rect fill="#252526" x="707.6" y="416.3" width="12.2" height="24.65" shape-rendering="crispEdges"/><rect fill="#1e1e1e" x="719.8" y="416.3" width="12.2" height="24.65" shape-rendering="crispEdges"/><rect fill="#1e1e1e" x="0" y="440.7" width="12.2" height="24.65" shape-rendering="crispEdges"/><rect fill="#252526" x="12.2" y="440.7" width="12.2" height="24.65" shape-rendering="crispEdges"/><rect fill="#252526" x="24.4" y="440.7" width="12.2" height="24.65" shape-rendering="crispEdges"/><rect fill="#252526" x="36.6" y="440.7" width="402.6" height="24.65" shape-rendering="crispEdges"/><rect fill="#252526" x="439.2" y="440.7" width="256.2" height="24.65" shape-rendering="crispEdges"/><rect fill="#252526" x="695.4" y="440.7" width="12.2" height="24.65" shape-rendering="crispEdges"/><rect fill="#252526" x="707.6" y="440.7" width="12.2" height="24.65" shape-rendering="crispEdges"/><rect fill="#1e1e1e" x="719.8" y="440.7" width="12.2" height="24.65" shape-rendering="crispEdges"/><rect fill="#1e1e1e" x="0" y="465.1" width="12.2" height="24.65" shape-rendering="crispEdges"/><rect fill="#252526" x="12.2" y="465.1" width="12.2" height="24.65" shape-rendering="crispEdges"/><rect fill="#252526" x="24.4" y="465.1" width="12.2" height="24.65" shape-rendering="crispEdges"/><rect fill="#252526" x="36.6" y="465.1" width="658.8" height="24.65" shape-rendering="crispEdges"/><rect fill="#252526" x="695.4" y="465.1" width="12.2" height="24.65" shape-rendering="crispEdges"/><rect fill="#252526" x="707.6" y="465.1" width="12.2" height="24.65" shape-rendering="crispEdges"/><rect fill="#1e1e1e" x="719.8" y="465.1" width="12.2" height="24.65" shape-rendering="crispEdges"/><rect fill="#1e1e1e" x="0" y="489.5" width="12.2" height="24.65" shape-rendering="crispEdges"/><rect fill="#252526" x="12.2" y="489.5" width="12.2" height="24.65" shape-rendering="crispEdges"/><rect fill="#252526" x="24.4" y="489.5" width="12.2" height="24.65" shape-rendering="crispEdges"/><rect fill="#252526" x="36.6" y="489.5" width="658.8" height="24.65" shape-rendering="crispEdges"/><rect fill="#252526" x="695.4" y="489.5" width="12.2" height="24.65" shape-rendering="crispEdges"/><rect fill="#252526" x="707.6" y="489.5" width="12.2" height="24.65" shape-rendering="crispEdges"/><rect fill="#1e1e1e" x="719.8" y="489.5" width="12.2" height="24.65" shape-rendering="crispEdges"/><rect fill="#1e1e1e" x="0" y="513.9" width="12.2" height="24.65" shape-rendering="crispEdges"/><rect fill="#252526" x="12.2" y="513.9" width="12.2" height="24.65" shape-rendering="crispEdges"/><rect fill="#252526" x="24.4" y="513.9" width="12.2" height="24.65" shape-rendering="crispEdges"/><rect fill="#252526" x="36.6" y="513.9" width="658.8" height="24.65" shape-rendering="crispEdges"/><rect fill="#252526" x="695.4" y="513.9" width="12.2" height="24.65" shape-rendering="crispEdges"/><rect fill="#252526" x="707.6" y="513.9" width="12.2" height="24.65" shape-rendering="crispEdges"/><rect fill="#1e1e1e" x="719.8" y="513.9" width="12.2" height="24.65" shape-rendering="crispEdges"/><rect fill="#1e1e1e" x="0" y="538.3" width="12.2" height="24.65" shape-rendering="crispEdges"/><rect fill="#252526" x="12.2" y="538.3" width="12.2" height="24.65" shape-rendering="crispEdges"/><rect fill="#252526" x="24.4" y="538.3" width="12.2" height="24.65" shape-rendering="crispEdges"/><rect fill="#252526" x="36.6" y="538.3" width="658.8" height="24.65" shape-rendering="crispEdges"/><rect fill="#252526" x="695.4" y="538.3" width="12.2" height="24.65" shape-rendering="crispEdges"/><rect fill="#252526" x="707.6" y="538.3" width="12.2" height="24.65" shape-rendering="crispEdges"/><rect fill="#1e1e1e" x="719.8" y="538.3" width="12.2" height="24.65" shape-rendering="crispEdges"/><rect fill="#1e1e1e" x="0" y="562.7" width="12.2" height="24.65" shape-rendering="crispEdges"/><rect fill="#252526" x="12.2" y="562.7" width="12.2" height="24.65" shape-rendering="crispEdges"/><rect fill="#252526" x="24.4" y="562.7" width="683.2" height="24.65" shape-rendering="crispEdges"/><rect fill="#252526" x="707.6" y="562.7" width="12.2" height="24.65" shape-rendering="crispEdges"/><rect fill="#1e1e1e" x="719.8" y="562.7" width="12.2" height="24.65" shape-rendering="crispEdges"/><rect fill="#2d2d2d" x="0" y="587.1" width="732" height="24.65" shape-rendering="crispEdges"/>
    <g class="terminal-2848660129-matrix">
    <text class="terminal-2848660129-r2" x="732" y="20" textLength="12.2" clip-path="url(#terminal-2848660129-line-0)">
</text><text class="terminal-2848660129-r3" x="12.2" y="44.4" textLength="12.2" clip-path="url(#terminal-2848660129-line-1)">╭</text><text class="terminal-2848660129-r3" x="24.4" y="44.4" textLength="317.2" clip-path="url(#terminal-2848660129-line-1)">──────────────────────────</text><text class="terminal-2848660129-r3" x="341.6" y="44.4" textLength="12.2" clip-path="url(#terminal-2848660129-line-1)">╮</text><text class="terminal-2848660129-r4" x="366" y="44.4" textLength="12.2" clip-path="url(#terminal-2848660129-line-1)">╭</text><text class="terminal-2848660129-r4" x="378.2" y="44.4" textLength="305" clip-path="url(#terminal-2848660129-line-1)">─────────────────────────</text><text class="terminal-2848660129-r4" x="683.2" y="44.4" textLength="12.2" clip-path="url(#terminal-2848660129-line-1)">╮</text><text class="terminal-2848660129-r2" x="732" y="44.4" textLength="12.2" clip-path="url(#terminal-2848660129-line-1)">
</text><text class="terminal-2848660129-r3" x="12.2" y="68.8" textLength="12.2" clip-path="url(#terminal-2848660129-line-2)">│</text><text class="terminal-2848660129-r5" x="36.6" y="68.8" textLength="146.4" clip-path="url(#terminal-2848660129-line-2)">[0]&#160;Projects</text><text class="terminal-2848660129-r3" x="341.6" y="68.8" textLength="12.2" clip-path="url(#terminal-2848660129-line-2)">│</text><text class="terminal-2848660129-r4" x="366" y="68.8" textLength="12.2" clip-path="url(#terminal-2848660129-line-2)">│</text><text class="terminal-2848660129-r5" x="390.4" y="68.8" textLength="158.6" clip-path="url(#terminal-2848660129-line-2)">[1]&#160;Worktrees</text><text class="terminal-2848660129-r4" x="683.2" y="68.8" textLength="12.2" clip-path="url(#terminal-2848660129-line-2)">│</text><text class="terminal-2848660129-r2" x="732" y="68.8" textLength="12.2" clip-path="url(#terminal-2848660129-line-2)">
</text><text class="terminal-2848660129-r3" x="12.2" y="93.2" textLength="12.2" clip-path="url(#terminal-2848660129-line-3)">│</text><text class="terminal-2848660129-r6" x="36.6" y="93.2" textLength="122" clip-path="url(#terminal-2848660129-line-3)">api-server</text><text class="terminal-2848660129-r7" x="158.6" y="93.2" textLength="48.8" clip-path="url(#terminal-2848660129-line-3)">&#160;(2)</text><text class="terminal-2848660129-r3" x="341.6" y="93.2" textLength="12.2" clip-path="url(#terminal-2848660129-line-3)">│</text><text class="terminal-2848660129-r4" x="366" y="93.2" textLength="12.2" clip-path="url(#terminal-2848660129-line-3)">│</text><text class="terminal-2848660129-r8" x="378.2" y="93.2" textLength="219.6" clip-path="url(#terminal-2848660129-line-3)">&#160;Branch&#160;&#160;&#160;&#160;&#160;&#160;&#160;&#160;&#160;&#160;&#160;</text><text class="terminal-2848660129-r8" x="597.8" y="93.2" textLength="85.4" clip-path="url(#terminal-2848660129-line-3)">&#160;Purpos</text><text class="terminal-2848660129-r4" x="683.2" y="93.2" textLength="12.2" clip-path="url(#terminal-2848660129-line-3)">│</text><text class="terminal-2848660129-r2" x="732" y="93.2" textLength="12.2" clip-path="url(#terminal-2848660129-line-3)">
</text><text class="terminal-2848660129-r3" x="12.2" y="117.6" textLength="12.2" clip-path="url(#terminal-2848660129-line-4)">│</text><text class="terminal-2848660129-r6" x="36.6" y="117.6" textLength="85.4" clip-path="url(#terminal-2848660129-line-4)">bearing</text><text class="terminal-2848660129-r7" x="122" y="117.6" textLength="48.8" clip-path="url(#terminal-2848660129-line-4)">&#160;(3)</text><text class="terminal-2848660129-r3" x="341.6" y="117.6" textLength="12.2" clip-path="url(#terminal-2848660129-line-4)">│</text><text class="terminal-2848660129-r4" x="366" y="117.6" textLength="12.2" clip-path="url(#terminal-2848660129-line-4)">│</text><text class="terminal-2848660129-r9" x="378.2" y="117.6" textLength="219.6" clip-path="url(#terminal-2848660129-line-4)">&#160;Select&#160;a&#160;project&#160;</text><text class="terminal-2848660129-r4" x="683.2" y="117.6" textLength="12.2" clip-path="url(#terminal-2848660129-line-4)">│</text><text class="terminal-2848660129-r2" x="732" y="117.6" textLength="12.2" clip-path="url(#terminal-2848660129-line-4)">
</text><text class="terminal-2848660129-r3" x="12.2" y="142" textLength="12.2" clip-path="url(#terminal-2848660129-line-5)">│</text><text class="terminal-2848660129-r6" x="36.6" y="142" textLength="219.6" clip-path="url(#terminal-2848660129-line-5)">fightingwithai.com</text><text class="terminal-2848660129-r7" x="256.2" y="142" textLength="48.8" clip-path="url(#terminal-2848660129-line-5)">&#160;(2)</text><text class="terminal-2848660129-r3" x="341.6" y="142" textLength="12.2" clip-path="url(#terminal-2848660129-line-5)">│</text><text class="terminal-2848660129-r4" x="366" y="142" textLength="12.2" clip-path="url(#terminal-2848660129-line-5)">│</text><text class="terminal-2848660129-r4" x="512.4" y="142" textLength="12.2" clip-path="url(#terminal-2848660129-line-5)">▋</text><text class="terminal-2848660129-r4" x="683.2" y="142" textLength="12.2" clip-path="url(#terminal-2848660129-line-5)">│</text><text class="terminal-2848660129-r2" x="732" y="142" textLength="12.2" clip-path="url(#terminal-2848660129-line-5)">
</text><text class="terminal-2848660129-r3" x="12.2" y="166.4" textLength="12.2" clip-path="url(#terminal-2848660129-line-6)">│</text><text class="terminal-2848660129-r6" x="36.6" y="166.4" textLength="109.8" clip-path="url(#terminal-2848660129-line-6)">portfolio</text><text class="terminal-2848660129-r7" x="146.4" y="166.4" textLength="48.8" clip-path="url(#terminal-2848660129-line-6)">&#160;(1)</text><text class="terminal-2848660129-r3" x="341.6" y="166.4" textLength="12.2" clip-path="url(#terminal-2848660129-line-6)">│</text><text class="terminal-2848660129-r4" x="366" y="166.4" textLength="12.2" clip-path="url(#terminal-2848660129-line-6)">│</text><text class="terminal-2848660129-r4" x="683.2" y="166.4" textLength="12.2" clip-path="url(#terminal-2848660129-line-6)">│</text><text class="terminal-2848660129-r2" x="732" y="166.4" textLength="12.2" clip-path="url(#terminal-2848660129-line-6)">
</text><text class="terminal-2848660129-r3" x="12.2" y="190.8" textLength="12.2" clip-path="url(#terminal-2848660129-line-7)">│</text><text class="terminal-2848660129-r6" x="36.6" y="190.8" textLength="85.4" clip-path="url(#terminal-2848660129-line-7)">sailkit</text><text class="terminal-2848660129-r7" x="122" y="190.8" textLength="48.8" clip-path="url(#terminal-2848660129-line-7)">&#160;(3)</text><text class="terminal-2848660129-r3" x="341.6" y="190.8" textLength="12.2" clip-path="url(#terminal-2848660129-line-7)">│</text><text class="terminal-2848660129-r4" x="366" y="190.8" textLength="12.2" clip-path="url(#terminal-2848660129-line-7)">│</text><text class="terminal-2848660129-r4" x="683.2" y="190.8" textLength="12.2" clip-path="url(#terminal-2848660129-line-7)">│</text><text class="terminal-2848660129-r2" x="732" y="190.8" textLength="12.2" clip-path="url(#terminal-2848660129-line-7)">
</text><text class="terminal-2848660129-r3" x="12.2" y="215.2" textLength="12.2" clip-path="url(#terminal-2848660129-line-8)">│</text><text class="terminal-2848660129-r6" x="36.6" y="215.2" textLength="122" clip-path="url(#terminal-2848660129-line-8)">surfdeeper</text><text class="terminal-2848660129-r7" x="158.6" y="215.2" textLength="48.8" clip-path="url(#terminal-2848660129-line-8)">&#160;(4)</text><text class="terminal-2848660129-r3" x="341.6" y="215.2" textLength="12.2" clip-path="url(#terminal-2848660129-line-8)">│</text><text class="terminal-2848660129-r4" x="366" y="215.2" textLength="12.2" clip-path="url(#terminal-2848660129-line-8)">│</text><text class="terminal-2848660129-r4" x="683.2" y="215.2" textLength="12.2" clip-path="url(#terminal-2848660129-line-8)">│</text><text class="terminal-2848660129-r2" x="732" y="215.2" textLength="12.2" clip-path="url(#terminal-2848660129-line-8)">
</text><text class="terminal-2848660129-r3" x="12.2" y="239.6" textLength="12.2" clip-path="url(#terminal-2848660129-line-9)">│</text><text class="terminal-2848660129-r3" x="341.6" y="239.6" textLength="12.2" clip-path="url(#terminal-2848660129-line-9)">│</text><text class="terminal-2848660129-r4" x="366" y="239.6" textLength="12.2" clip-path="url(#terminal-2848660129-line-9)">│</text><text class="terminal-2848660129-r4" x="683.2" y="239.6" textLength="12.2" clip-path="url(#terminal-2848660129-line-9)">│</text><text class="terminal-2848660129-r2" x="732" y="239.6" textLength="12.2" clip-path="url(#terminal-2848660129-line-9)">
</text><text class="terminal-2848660129-r3" x="12.2" y="264" textLength="12.2" clip-path="url(#terminal-2848660129-line-10)">│</text><text class="terminal-2848660129-r3" x="341.6" y="264" textLength="12.2" clip-path="url(#terminal-2848660129-line-10)">│</text><text class="terminal-2848660129-r4" x="366" y="264" textLength="12.2" clip-path="url(#terminal-2848660129-line-10)">│</text><text class="terminal-2848660129-r4" x="683.2" y="264" textLength="12.2" clip-path="url(#terminal-2848660129-line-10)">│</text><text class="terminal-2848660129-r2" x="732" y="264" textLength="12.2" clip-path="url(#terminal-2848660129-line-10)">
</text><text class="terminal-2848660129-r3" x="12.2" y="288.4" textLength="12.2" clip-path="url(#terminal-2848660129-line-11)">│</text><text class="terminal-2848660129-r3" x="341.6" y="288.4" textLength="12.2" clip-path="url(#terminal-2848660129-line-11)">│</text><text class="terminal-2848660129-r4" x="366" y="288.4" textLength="12.2" clip-path="url(#terminal-2848660129-line-11)">│</text><text class="terminal-2848660129-r4" x="683.2" y="288.4" textLength="12.2" clip-path="url(#terminal-2848660129-line-11)">│</text><text class="terminal-2848660129-r2" x="732" y="288.4" textLength="12.2" clip-path="url(#terminal-2848660129-line-11)">
</text><text class="terminal-2848660129-r3" x="12.2" y="312.8" textLength="12.2" clip-path="url(#terminal-2848660129-line-12)">│</text><text class="terminal-2848660129-r3" x="341.6" y="312.8" textLength="12.2" clip-path="url(#terminal-2848660129-line-12)">│</text><text class="terminal-2848660129-r4" x="366" y="312.8" textLength="12.2" clip-path="url(#terminal-2848660129-line-12)">│</text><text class="terminal-2848660129-r4" x="683.2" y="312.8" textLength="12.2" clip-path="url(#terminal-2848660129-line-12)">│</text><text class="terminal-2848660129-r2" x="732" y="312.8" textLength="12.2" clip-path="url(#terminal-2848660129-line-12)">
</text><text class="terminal-2848660129-r3" x="12.2" y="337.2" textLength="12.2" clip-path="url(#terminal-2848660129-line-13)">│</text><text class="terminal-2848660129-r3" x="341.6" y="337.2" textLength="12.2" clip-path="url(#terminal-2848660129-line-13)">│</text><text class="terminal-2848660129-r4" x="366" y="337.2" textLength="12.2" clip-path="url(#terminal-2848660129-line-13)">│</text><text class="terminal-2848660129-r4" x="683.2" y="337.2" textLength="12.2" clip-path="url(#terminal-2848660129-line-13)">│</text><text class="terminal-2848660129-r2" x="732" y="337.2" textLength="12.2" clip-path="url(#terminal-2848660129-line-13)">
</text><text class="terminal-2848660129-r3" x="12.2" y="361.6" textLength="12.2" clip-path="url(#terminal-2848660129-line-14)">╰</text><text class="terminal-2848660129-r3" x="24.4" y="361.6" textLength="317.2" clip-path="url(#terminal-2848660129-line-14)">──────────────────────────</text><text class="terminal-2848660129-r3" x="341.6" y="361.6" textLength="12.2" clip-path="url(#terminal-2848660129-line-14)">╯</text><text class="terminal-2848660129-r4" x="366" y="361.6" textLength="12.2" clip-path="url(#terminal-2848660129-line-14)">╰</text><text class="terminal-2848660129-r4" x="378.2" y="361.6" textLength="305" clip-path="url(#terminal-2848660129-line-14)">─────────────────────────</text><text class="terminal-2848660129-r4" x="683.2" y="361.6" textLength="12.2" clip-path="url(#terminal-2848660129-line-14)">╯</text><text class="terminal-2848660129-r2" x="732" y="361.6" textLength="12.2" clip-path="url(#terminal-2848660129-line-14)">
</text><text class="terminal-2848660129-r2" x="732" y="386" textLength="12.2" clip-path="url(#terminal-2848660129-line-15)">
</text><text class="terminal-2848660129-r4" x="12.2" y="410.4" textLength="12.2" clip-path="url(#terminal-2848660129-line-16)">╭</text><text class="terminal-2848660129-r4" x="24.4" y="410.4" textLength="158.6" clip-path="url(#terminal-2848660129-line-16)">─────────────</text><text class="terminal-2848660129-r4" x="183" y="410.4" textLength="12.2" clip-path="url(#terminal-2848660129-line-16)">╮</text><text class="terminal-2848660129-r2" x="732" y="410.4" textLength="12.2" clip-path="url(#terminal-2848660129-line-16)">
</text><text class="terminal-2848660129-r4" x="12.2" y="434.8" textLength="12.2" clip-path="url(#terminal-2848660129-line-17)">╭</text><text class="terminal-2848660129-r4" x="24.4" y="434.8" textLength="683.2" clip-path="url(#terminal-2848660129-line-17)">────────────────────────────────────────────────────────</text><text class="terminal-2848660129-r4" x="707.6" y="434.8" textLength="12.2" clip-path="url(#terminal-2848660129-line-17)">╮</text><text class="terminal-2848660129-r2" x="732" y="434.8" textLength="12.2" clip-path="url(#terminal-2848660129-line-17)">
</text><text class="terminal-2848660129-r4" x="12.2" y="459.2" textLength="12.2" clip-path="url(#terminal-2848660129-line-18)">│</text><text class="terminal-2848660129-r12" x="36.6" y="459.2" textLength="402.6" clip-path="url(#terminal-2848660129-line-18)">Select&#160;a&#160;worktree&#160;to&#160;view&#160;details</text><text class="terminal-2848660129-r4" x="707.6" y="459.2" textLength="12.2" clip-path="url(#terminal-2848660129-line-18)">│</text><text class="terminal-2848660129-r2" x="732" y="459.2" textLength="12.2" clip-path="url(#terminal-2848660129-line-18)">
</text><text class="terminal-2848660129-r4" x="12.2" y="483.6" textLength="12.2" clip-path="url(#terminal-2848660129-line-19)">│</text><text class="terminal-2848660129-r4" x="707.6" y="483.6" textLength="12.2" clip-path="url(#terminal-2848660129-line-19)">│</text><text class="terminal-2848660129-r2" x="732" y="483.6" textLength="12.2" clip-path="url(#terminal-2848660129-line-19)">
</text><text class="terminal-2848660129-r4" x="12.2" y="508" textLength="12.2" clip-path="url(#terminal-2848660129-line-20)">│</text><text class="terminal-2848660129-r4" x="707.6" y="508" textLength="12.2" clip-path="url(#terminal-2848660129-line-20)">│</text><text class="terminal-2848660129-r2" x="732" y="508" textLength="12.2" clip-path="url(#terminal-2848660129-line-20)">
</text><text class="terminal-2848660129-r4" x="12.2" y="532.4" textLength="12.2" clip-path="url(#terminal-2848660129-line-21)">│</text><text class="terminal-2848660129-r4" x="707.6" y="532.4" textLength="12.2" clip-path="url(#terminal-2848660129-line-21)">│</text><text class="terminal-2848660129-r2" x="732" y="532.4" textLength="12.2" clip-path="url(#terminal-2848660129-line-21)">
</text><text class="terminal-2848660129-r4" x="12.2" y="556.8" textLength="12.2" clip-path="url(#terminal-2848660129-line-22)">│</text><text class="terminal-2848660129-r4" x="707.6" y="556.8" textLength="12.2" clip-path="url(#terminal-2848660129-line-22)">│</text><text class="terminal-2848660129-r2" x="732" y="556.8" textLength="12.2" clip-path="url(#terminal-2848660129-line-22)">
</text><text class="terminal-2848660129-r4" x="12.2" y="581.2" textLength="12.2" clip-path="url(#terminal-2848660129-line-23)">╰</text><text class="terminal-2848660129-r4" x="24.4" y="581.2" textLength="683.2" clip-path="url(#terminal-2848660129-line-23)">────────────────────────────────────────────────────────</text><text class="terminal-2848660129-r4" x="707.6" y="581.2" textLength="12.2" clip-path="url(#terminal-2848660129-line-23)">╯</text><text class="terminal-2848660129-r2" x="732" y="581.2" textLength="12.2" clip-path="url(#terminal-2848660129-line-23)">
</text><text class="terminal-2848660129-r4" x="0" y="605.6" textLength="732" clip-path="url(#terminal-2848660129-line-24)">────────────────────────────────────────────────────────────</text>
    </g>
    </g>
</svg>
