<svg class="rich-terminal" viewBox="0 0 628 342.79999999999995" xmlns="http://www.w3.org/2000/svg">
    <!-- Generated with Rich https://www.textualize.io -->
    <style>

    @font-face {
        font-family: "Fira Code";
        src: local("FiraCode-Regular"),
                url("https://cdnjs.cloudflare.com/ajax/libs/firacode/6.2.0/woff2/FiraCode-Regular.woff2") format("woff2"),
                url("https://cdnjs.cloudflare.com/ajax/libs/firacode/6.2.0/woff/FiraCode-Regular.woff") format("woff");
        font-style: normal;
        font-weight: 400;
    }
    @font-face {
        font-family: "Fira Code";
        src: local("FiraCode-Bold"),
                url("https://cdnjs.cloudflare.com/ajax/libs/firacode/6.2.0/woff2/FiraCode-Bold.woff2") format("woff2"),
                url("https://cdnjs.cloudflare.com/ajax/libs/firacode/6.2.0/woff/FiraCode-Bold.woff") format("woff");
        font-style: bold;
        font-weight: 700;
    }

    .terminal-2326971800-matrix {
        font-family: Fira Code, monospace;
        font-size: 20px;
        line-height: 24.4px;
        font-variant-east-asian: full-width;
    }

    .terminal-2326971800-title {
        font-size: 18px;
        font-weight: bold;
        font-family: arial;
    }

    .terminal-2326971800-r1 { fill: #00ff00 }
.terminal-2326971800-r2 { fill: #c5c8c6 }
.terminal-2326971800-r3 { fill: #007acc }
.terminal-2326971800-r4 { fill: #3c3c3c }
.terminal-2326971800-r5 { fill: #a1a1a2;font-style: italic; }
.terminal-2326971800-r6 { fill: #e2e2e2 }
.terminal-2326971800-r7 { fill: #ffa62b;font-weight: bold }
.terminal-2326971800-r8 { fill: #e0e0e0 }
.terminal-2326971800-r9 { fill: #495259 }
    </style>

    <defs>
    <clipPath id="terminal-2326971800-clip-terminal">
      <rect x="0" y="0" width="609.0" height="291.79999999999995" />
    </clipPath>
    <clipPath id="terminal-2326971800-line-0">
    <rect x="0" y="1.5" width="610" height="24.65"/>
            </clipPath>
<clipPath id="terminal-2326971800-line-1">
    <rect x="0" y="25.9" width="610" height="24.65"/>
            </clipPath>
<clipPath id="terminal-2326971800-line-2">
    <rect x="0" y="50.3" width="610" height="24.65"/>
            </clipPath>
<clipPath id="terminal-2326971800-line-3">
    <rect x="0" y="74.7" width="610" height="24.65"/>
            </clipPath>
<clipPath id="terminal-2326971800-line-4">
    <rect x="0" y="99.1" width="610" height="24.65"/>
            </clipPath>
<clipPath id="terminal-2326971800-line-5">
    <rect x="0" y="123.5" width="610" height="24.65"/>
            </clipPath>
<clipPath id="terminal-2326971800-line-6">
    <rect x="0" y="147.9" width="610" height="24.65"/>
            </clipPath>
<clipPath id="terminal-2326971800-line-7">
    <rect x="0" y="172.3" width="610" height="24.65"/>
            </clipPath>
<clipPath id="terminal-2326971800-line-8">
    <rect x="0" y="196.7" width="610" height="24.65"/>
            </clipPath>
<clipPath id="terminal-2326971800-line-9">
    <rect x="0" y="221.1" width="610" height="24.65"/>
            </clipPath>
<clipPath id="terminal-2326971800-line-10">
    <rect x="0" y="245.5" width="610" height="24.65"/>
            </clipPath>
    </defs>

    <rect fill="#292929" stroke="rgba(255,255,255,0.35)" stroke-width="1" x="1" y="1" width="626" height="340.8" rx="8"/><text class="terminal-2326971800-title" fill="#c5c8c6" text-anchor="middle" x="313" y="27">Bearing</text>
            <g transform="translate(26,22)">
            <circle cx="0" cy="0" r="7" fill="#ff5f57"/>
            <circle cx="22" cy="0" r="7" fill="#febc2e"/>
            <circle cx="44" cy="0" r="7" fill="#28c840"/>
            </g>
        
    <g transform="translate(9, 41)" clip-path="url(#terminal-2326971800-clip-terminal)">
    <rect fill="#2d2d2d" x="0" y="1.5" width="610" height="24.65" shape-rendering="crispEdges"/><rect fill="#1e1e1e" x="0" y="25.9" width="12.2" height="24.65" shape-rendering="crispEdges"/><rect fill="#252526" x="12.2" y="25.9" width="12.2" height="24.65" shape-rendering="crispEdges"/><rect fill="#252526" x="24.4" y="25.9" width="317.2" height="24.65" shape-rendering="crispEdges"/><rect fill="#252526" x="341.6" y="25.9" width="12.2" height="24.65" shape-rendering="crispEdges"/><rect fill="#1e1e1e" x="353.8" y="25.9" width="12.2" height="24.65" shape-rendering="crispEdges"/><rect fill="#252526" x="366" y="25.9" width="12.2" height="24.65" shape-rendering="crispEdges"/><rect fill="#252526" x="378.2" y="25.9" width="183" height="24.65" shape-rendering="crispEdges"/><rect fill="#252526" x="561.2" y="25.9" width="12.2" height="24.65" shape-rendering="crispEdges"/><rect fill="#1e1e1e" x="573.4" y="25.9" width="12.2" height="24.65" shape-rendering="crispEdges"/><rect fill="#1e1e1e" x="585.6" y="25.9" width="24.4" height="24.65" shape-rendering="crispEdges"/><rect fill="#1e1e1e" x="0" y="50.3" width="610" height="24.65" shape-rendering="crispEdges"/><rect fill="#1e1e1e" x="0" y="74.7" width="12.2" height="24.65" shape-rendering="crispEdges"/><rect fill="#2d2d2d" x="12.2" y="74.7" width="12.2" height="24.65" shape-rendering="crispEdges"/><rect fill="#2d2d2d" x="24.4" y="74.7" width="158.6" height="24.65" shape-rendering="crispEdges"/><rect fill="#2d2d2d" x="183" y="74.7" width="12.2" height="24.65" shape-rendering="crispEdges"/><rect fill="#1e1e1e" x="195.2" y="74.7" width="414.8" height="24.65" shape-rendering="crispEdges"/><rect fill="#1e1e1e" x="0" y="99.1" width="12.2" height="24.65" shape-rendering="crispEdges"/><rect fill="#252526" x="12.2" y="99.1" width="12.2" height="24.65" shape-rendering="crispEdges"/><rect fill="#252526" x="24.4" y="99.1" width="561.2" height="24.65" shape-rendering="crispEdges"/><rect fill="#252526" x="585.6" y="99.1" width="12.2" height="24.65" shape-rendering="crispEdges"/><rect fill="#1e1e1e" x="597.8" y="99.1" width="12.2" height="24.65" shape-rendering="crispEdges"/><rect fill="#1e1e1e" x="0" y="123.5" width="12.2" height="24.65" shape-rendering="crispEdges"/><rect fill="#252526" x="12.2" y="123.5" width="12.2" height="24.65" shape-rendering="crispEdges"/><rect fill="#252526" x="24.4" y="123.5" width="12.2" height="24.65" shape-rendering="crispEdges"/><rect fill="#252526" x="36.6" y="123.5" width="402.6" height="24.65" shape-rendering="crispEdges"/><rect fill="#252526" x="439.2" y="123.5" width="134.2" height="24.65" shape-rendering="crispEdges"/><rect fill="#252526" x="573.4" y="123.5" width="12.2" height="24.65" shape-rendering="crispEdges"/><rect fill="#252526" x="585.6" y="123.5" width="12.2" height="24.65" shape-rendering="crispEdges"/><rect fill="#1e1e1e" x="597.8" y="123.5" width="12.2" height="24.65" shape-rendering="crispEdges"/><rect fill="#1e1e1e" x="0" y="147.9" width="12.2" height="24.65" shape-rendering="crispEdges"/><rect fill="#252526" x="12.2" y="147.9" width="12.2" height="24.65" shape-rendering="crispEdges"/><rect fill="#252526" x="24.4" y="147.9" width="12.2" height="24.65" shape-rendering="crispEdges"/><rect fill="#252526" x="36.6" y="147.9" width="536.8" height="24.65" shape-rendering="crispEdges"/><rect fill="#252526" x="573.4" y="147.9" width="12.2" height="24.65" shape-rendering="crispEdges"/><rect fill="#252526" x="585.6" y="147.9" width="12.2" height="24.65" shape-rendering="crispEdges"/><rect fill="#1e1e1e" x="597.8" y="147.9" width="12.2" height="24.65" shape-rendering="crispEdges"/><rect fill="#1e1e1e" x="0" y="172.3" width="12.2" height="24.65" shape-rendering="crispEdges"/><rect fill="#252526" x="12.2" y="172.3" width="12.2" height="24.65" shape-rendering="crispEdges"/><rect fill="#252526" x="24.4" y="172.3" width="12.2" height="24.65" shape-rendering="crispEdges"/><rect fill="#252526" x="36.6" y="172.3" width="536.8" height="24.65" shape-rendering="crispEdges"/><rect fill="#252526" x="573.4" y="172.3" width="12.2" height="24.65" shape-rendering="crispEdges"/><rect fill="#252526" x="585.6" y="172.3" width="12.2" height="24.65" shape-rendering="crispEdges"/><rect fill="#1e1e1e" x="597.8" y="172.3" width="12.2" height="24.65" shape-rendering="crispEdges"/><rect fill="#1e1e1e" x="0" y="196.7" width="12.2" height="24.65" shape-rendering="crispEdges"/><rect fill="#252526" x="12.2" y="196.7" width="12.2" height="24.65" shape-rendering="crispEdges"/><rect fill="#252526" x="24.4" y="196.7" width="12.2" height="24.65" shape-rendering="crispEdges"/><rect fill="#252526" x="36.6" y="196.7" width="536.8" height="24.65" shape-rendering="crispEdges"/><rect fill="#252526" x="573.4" y="196.7" width="12.2" height="24.65" shape-rendering="crispEdges"/><rect fill="#252526" x="585.6" y="196.7" width="12.2" height="24.65" shape-rendering="crispEdges"/><rect fill="#1e1e1e" x="597.8" y="196.7" width="12.2" height="24.65" shape-rendering="crispEdges"/><rect fill="#1e1e1e" x="0" y="221.1" width="12.2" height="24.65" shape-rendering="crispEdges"/><rect fill="#252526" x="12.2" y="221.1" width="12.2" height="24.65" shape-rendering="crispEdges"/><rect fill="#252526" x="24.4" y="221.1" width="12.2" height="24.65" shape-rendering="crispEdges"/><rect fill="#252526" x="36.6" y="221.1" width="536.8" height="24.65" shape-rendering="crispEdges"/><rect fill="#252526" x="573.4" y="221.1" width="12.2" height="24.65" shape-rendering="crispEdges"/><rect fill="#252526" x="585.6" y="221.1" width="12.2" height="24.65" shape-rendering="crispEdges"/><rect fill="#1e1e1e" x="597.8" y="221.1" width="12.2" height="24.65" shape-rendering="crispEdges"/><rect fill="#1e1e1e" x="0" y="245.5" width="12.2" height="24.65" shape-rendering="crispEdges"/><rect fill="#252526" x="12.2" y="245.5" width="12.2" height="24.65" shape-rendering="crispEdges"/><rect fill="#252526" x="24.4" y="245.5" width="561.2" height="24.65" shape-rendering="crispEdges"/><rect fill="#252526" x="585.6" y="245.5" width="12.2" height="24.65" shape-rendering="crispEdges"/><rect fill="#1e1e1e" x="597.8" y="245.5" width="12.2" height="24.65" shape-rendering="crispEdges"/><rect fill="#242f38" x="0" y="269.9" width="36.6" height="24.65" shape-rendering="crispEdges"/><rect fill="#242f38" x="36.6" y="269.9" width="61" height="24.65" shape-rendering="crispEdges"/><rect fill="#242f38" x="97.6" y="269.9" width="36.6" height="24.65" shape-rendering="crispEdges"/><rect fill="#242f38" x="134.2" y="269.9" width="61" height="24.65" shape-rendering="crispEdges"/><rect fill="#242f38" x="195.2" y="269.9" width="36.6" height="24.65" shape-rendering="crispEdges"/><rect fill="#242f38" x="231.8" y="269.9" width="48.8" height="24.65" shape-rendering="crispEdges"/><rect fill="#242f38" x="280.6" y="269.9" width="36.6" height="24.65" shape-rendering="crispEdges"/><rect fill="#242f38" x="317.2" y="269.9" width="97.6" height="24.65" shape-rendering="crispEdges"/><rect fill="#242f38" x="414.8" y="269.9" width="36.6" height="24.65" shape-rendering="crispEdges"/><rect fill="#242f38" x="451.4" y="269.9" width="12.2" height="24.65" shape-rendering="crispEdges"/><rect fill="#242f38" x="463.6" y="269.9" width="12.2" height="24.65" shape-rendering="crispEdges"/><rect fill="#242f38" x="475.8" y="269.9" width="24.4" height="24.65" shape-rendering="crispEdges"/><rect fill="#242f38" x="500.2" y="269.9" width="48.8" height="24.65" shape-rendering="crispEdges"/><rect fill="#242f38" x="549" y="269.9" width="48.8" height="24.65" shape-rendering="crispEdges"/><rect fill="#242f38" x="597.8" y="269.9" width="12.2" height="24.65" shape-rendering="crispEdges"/>
    <g class="terminal-2326971800-matrix">
    <text class="terminal-2326971800-r2" x="610" y="20" textLength="12.2" clip-path="url(#terminal-2326971800-line-0)">
</text><text class="terminal-2326971800-r3" x="12.2" y="44.4" textLength="12.2" clip-path="url(#terminal-2326971800-line-1)">╭</text><text class="terminal-2326971800-r3" x="24.4" y="44.4" textLength="317.2" clip-path="url(#terminal-2326971800-line-1)">──────────────────────────</text><text class="terminal-2326971800-r3" x="341.6" y="44.4" textLength="12.2" clip-path="url(#terminal-2326971800-line-1)">╮</text><text class="terminal-2326971800-r4" x="366" y="44.4" textLength="12.2" clip-path="url(#terminal-2326971800-line-1)">╭</text><text class="terminal-2326971800-r4" x="378.2" y="44.4" textLength="183" clip-path="url(#terminal-2326971800-line-1)">───────────────</text><text class="terminal-2326971800-r4" x="561.2" y="44.4" textLength="12.2" clip-path="url(#terminal-2326971800-line-1)">╮</text><text class="terminal-2326971800-r2" x="610" y="44.4" textLength="12.2" clip-path="url(#terminal-2326971800-line-1)">
</text><text class="terminal-2326971800-r2" x="610" y="68.8" textLength="12.2" clip-path="url(#terminal-2326971800-line-2)">
</text><text class="terminal-2326971800-r4" x="12.2" y="93.2" textLength="12.2" clip-path="url(#terminal-2326971800-line-3)">╭</text><text class="terminal-2326971800-r4" x="24.4" y="93.2" textLength="158.6" clip-path="url(#terminal-2326971800-line-3)">─────────────</text><text class="terminal-2326971800-r4" x="183" y="93.2" textLength="12.2" clip-path="url(#terminal-2326971800-line-3)">╮</text><text class="terminal-2326971800-r2" x="610" y="93.2" textLength="12.2" clip-path="url(#terminal-2326971800-line-3)">
</text><text class="terminal-2326971800-r4" x="12.2" y="117.6" textLength="12.2" clip-path="url(#terminal-2326971800-line-4)">╭</text><text class="terminal-2326971800-r4" x="24.4" y="117.6" textLength="561.2" clip-path="url(#terminal-2326971800-line-4)">──────────────────────────────────────────────</text><text class="terminal-2326971800-r4" x="585.6" y="117.6" textLength="12.2" clip-path="url(#terminal-2326971800-line-4)">╮</text><text class="terminal-2326971800-r2" x="610" y="117.6" textLength="12.2" clip-path="url(#terminal-2326971800-line-4)">
</text><text class="terminal-2326971800-r4" x="12.2" y="142" textLength="12.2" clip-path="url(#terminal-2326971800-line-5)">│</text><text class="terminal-2326971800-r5" x="36.6" y="142" textLength="402.6" clip-path="url(#terminal-2326971800-line-5)">Select&#160;a&#160;worktree&#160;to&#160;view&#160;details</text><text class="terminal-2326971800-r4" x="585.6" y="142" textLength="12.2" clip-path="url(#terminal-2326971800-line-5)">│</text><text class="terminal-2326971800-r2" x="610" y="142" textLength="12.2" clip-path="url(#terminal-2326971800-line-5)">
</text><text class="terminal-2326971800-r4" x="12.2" y="166.4" textLength="12.2" clip-path="url(#terminal-2326971800-line-6)">│</text><text class="terminal-2326971800-r4" x="585.6" y="166.4" textLength="12.2" clip-path="url(#terminal-2326971800-line-6)">│</text><text class="terminal-2326971800-r2" x="610" y="166.4" textLength="12.2" clip-path="url(#terminal-2326971800-line-6)">
</text><text class="terminal-2326971800-r4" x="12.2" y="190.8" textLength="12.2" clip-path="url(#terminal-2326971800-line-7)">│</text><text class="terminal-2326971800-r4" x="585.6" y="190.8" textLength="12.2" clip-path="url(#terminal-2326971800-line-7)">│</text><text class="terminal-2326971800-r2" x="610" y="190.8" textLength="12.2" clip-path="url(#terminal-2326971800-line-7)">
</text><text class="terminal-2326971800-r4" x="12.2" y="215.2" textLength="12.2" clip-path="url(#terminal-2326971800-line-8)">│</text><text class="terminal-2326971800-r4" x="585.6" y="215.2" textLength="12.2" clip-path="url(#terminal-2326971800-line-8)">│</text><text class="terminal-2326971800-r2" x="610" y="215.2" textLength="12.2" clip-path="url(#terminal-2326971800-line-8)">
</text><text class="terminal-2326971800-r4" x="12.2" y="239.6" textLength="12.2" clip-path="url(#terminal-2326971800-line-9)">│</text><text class="terminal-2326971800-r4" x="585.6" y="239.6" textLength="12.2" clip-path="url(#terminal-2326971800-line-9)">│</text><text class="terminal-2326971800-r2" x="610" y="239.6" textLength="12.2" clip-path="url(#terminal-2326971800-line-9)">
</text><text class="terminal-2326971800-r4" x="12.2" y="264" textLength="12.2" clip-path="url(#terminal-2326971800-line-10)">╰</text><text class="terminal-2326971800-r4" x="24.4" y="264" textLength="561.2" clip-path="url(#terminal-2326971800-line-10)">──────────────────────────────────────────────</text><text class="terminal-2326971800-r4" x="585.6" y="264" textLength="12.2" clip-path="url(#terminal-2326971800-line-10)">╯</text><text class="terminal-2326971800-r2" x="610" y="264" textLength="12.2" clip-path="url(#terminal-2326971800-line-10)">
</text><text class="terminal-2326971800-r7" x="0" y="288.4" textLength="36.6" clip-path="url(#terminal-2326971800-line-11)">&#160;q&#160;</text><text class="terminal-2326971800-r8" x="36.6" y="288.4" textLength="61" clip-path="url(#terminal-2326971800-line-11)">Quit&#160;</text><text class="terminal-2326971800-r7" x="97.6" y="288.4" textLength="36.6" clip-path="url(#terminal-2326971800-line-11)">&#160;?&#160;</text><text class="terminal-2326971800-r8" x="134.2" y="288.4" textLength="61" clip-path="url(#terminal-2326971800-line-11)">Help&#160;</text><text class="terminal-2326971800-r7" x="195.2" y="288.4" textLength="36.6" clip-path="url(#terminal-2326971800-line-11)">&#160;n&#160;</text><text class="terminal-2326971800-r8" x="231.8" y="288.4" textLength="48.8" clip-path="url(#terminal-2326971800-line-11)">New&#160;</text><text class="terminal-2326971800-r7" x="280.6" y="288.4" textLength="36.6" clip-path="url(#terminal-2326971800-line-11)">&#160;c&#160;</text><text class="terminal-2326971800-r8" x="317.2" y="288.4" textLength="97.6" clip-path="url(#terminal-2326971800-line-11)">Cleanup&#160;</text><text class="terminal-2326971800-r7" x="414.8" y="288.4" textLength="36.6" clip-path="url(#terminal-2326971800-line-11)">&#160;r&#160;</text><text class="terminal-2326971800-r8" x="451.4" y="288.4" textLength="12.2" clip-path="url(#terminal-2326971800-line-11)">R</text><text class="terminal-2326971800-r9" x="463.6" y="288.4" textLength="12.2" clip-path="url(#terminal-2326971800-line-11)">▏</text><text class="terminal-2326971800-r7" x="475.8" y="288.4" textLength="24.4" clip-path="url(#terminal-2326971800-line-11)">^p</text><text class="terminal-2326971800-r8" x="500.2" y="288.4" textLength="48.8" clip-path="url(#terminal-2326971800-line-11)">&#160;pal</text><text class="terminal-2326971800-r8" x="549" y="288.4" textLength="48.8" clip-path="url(#terminal-2326971800-line-11)">ette</text>
    </g>
    </g>
</svg>
